<svg viewBox="0 0 873.1 623.5">
  <path d="M146.5 438.1v100.5m0-100.5l72.5-41.9m-72.5 41.9L219 480m-72.5 58.6l72.5 41.8"/>
  <ellipse cx="219" cy="421.3" rx="30.8" ry="17.8"/>
  <path d="M188.2 421.3V438c0 9.8 13.8 17.8 30.8 17.8s30.8-8 30.8-17.8v-16.7m41.7 100.5v100.5M219 480l72.5 41.8m0 0L364 480M219 580.4l72.5 41.9m0 0l72.5-41.9"/>
  <ellipse cx="291.5" cy="463.2" rx="30.8" ry="17.8"/>
  <path d="M260.7 463.2V480c0 9.8 13.8 17.8 30.8 17.8s30.8-8 30.8-17.8v-16.7M364 480l72.6-41.9M364 580.4l72.6-41.8m0-100.5l72.5-41.9m-72.5 142.4l72.5-41.9m72.5-142.4v100.5m-72.5-58.6l72.5-41.9m-72.5 142.4l72.5-41.9M219 295.7v100.5m0-100.5l72.5-41.8M219 295.7l72.5 41.9M219 396.2l72.5 41.9"/>
  <ellipse cx="291.5" cy="279" rx="30.8" ry="17.8"/>
  <path d="M260.7 279v16.7c0 9.8 13.8 17.8 30.8 17.8s30.8-8 30.8-17.8V279m-30.8-25.1L364 212"/>
  <ellipse cx="364" cy="237.1" rx="30.8" ry="17.8"/>
  <path d="M333.3 237.1v16.7c0 9.8 13.8 17.8 30.8 17.8s30.8-8 30.8-17.8v-16.7M364 212l72.6-41.9"/>
  <ellipse cx="436.6" cy="195.2" rx="30.8" ry="17.8"/>
  <path d="M405.8 195.2V212c0 9.8 13.8 17.8 30.8 17.8s30.8-8 30.8-17.8v-16.7m-30.8-25.2l72.5-41.9m0 0l72.5 41.9"/>
  <ellipse cx="509.1" cy="153.4" rx="30.8" ry="17.8"/>
  <path d="M478.3 153.4v16.7c0 9.8 13.8 17.8 30.8 17.8s30.8-8 30.8-17.8v-16.7M364 379.5V480m-72.5-142.4l72.5 41.9m0 0l72.6-41.9M291.5 438.1L364 480m0 0l72.6-41.9"/>
  <ellipse cx="364" cy="320.8" rx="30.8" ry="17.8"/>
  <path d="M333.3 320.8v16.7c0 9.8 13.8 17.8 30.8 17.8s30.8-8 30.8-17.8v-16.7m41.7 16.8l72.5-41.9m-72.5 142.4l72.5-41.9"/>
  <ellipse cx="436.6" cy="279" rx="30.8" ry="17.8"/>
  <path d="M405.8 279v16.7c0 9.8 13.8 17.8 30.8 17.8s30.8-8 30.8-17.8V279m41.7 16.7l72.5-41.8m-72.5 142.3l72.5-41.9"/>
  <ellipse cx="509.1" cy="237.1" rx="30.8" ry="17.8"/>
  <path d="M478.3 237.1v16.7c0 9.8 13.8 17.8 30.8 17.8s30.8-8 30.8-17.8v-16.7M654.1 212v100.5m-72.5-142.4l72.5 41.9m-72.5 41.9l72.5-41.9m-72.5 142.3l72.5-41.8"/>
  <ellipse cx="581.6" cy="195.2" rx="30.8" ry="17.8"/>
  <path d="M550.8 195.2V212c0 9.8 13.8 17.8 30.8 17.8s30.8-8 30.8-17.8v-16.7"/>
</svg>
