<svg viewBox="0 0 873.1 623.5">
  <path d="M146.5 438.1v100.5M146.5 438.1l72.5-41.9M146.5 438.1L219 480M146.5 538.6l72.5 41.8"/>
  <ellipse cx="219" cy="421.3" rx="30.8" ry="17.8"/>
  <path d="M188.2 421.3V438c0 9.8 13.8 17.8 30.8 17.8s30.8-8 30.8-17.8v-16.7M219 396.2l72.5-41.9"/>
  <ellipse cx="291.5" cy="379.5" rx="30.8" ry="17.8"/>
  <path d="M260.7 379.5v16.7c0 9.8 13.8 17.8 30.8 17.8s30.8-8 30.8-17.8v-16.7M291.5 521.8v100.5M219 480l72.5 41.8M291.5 521.8L364 480M219 580.4l72.5 41.9M291.5 622.3l72.5-41.9"/>
  <ellipse cx="291.5" cy="463.2" rx="30.8" ry="17.8"/>
  <path d="M260.7 463.2V480c0 9.8 13.8 17.8 30.8 17.8s30.8-8 30.8-17.8v-16.7M364 480l72.6-41.9M364 580.4l72.6-41.8"/>
  <ellipse cx="364" cy="421.3" rx="30.8" ry="17.8"/>
  <path d="M333.3 421.3V438c0 9.8 13.8 17.8 30.8 17.8s30.8-8 30.8-17.8v-16.7M436.6 538.6l72.5-41.9M509.1 496.7l15.4-8.9M726.6 336.6v100.5M726.6 336.6l-72.5-41.9M726.6 336.6l-72.5 41.8M726.6 437.1l-72.5 41.8"/>
  <ellipse cx="654.1" cy="319.8" rx="30.8" ry="17.8"/>
  <path d="M684.9 319.8v16.7c0 9.8-13.8 17.8-30.8 17.8s-30.8-8-30.8-17.8v-16.7M654.1 294.7l-72.5-41.9"/>
  <ellipse cx="581.6" cy="278" rx="30.8" ry="17.8"/>
  <path d="M612.4 278v16.7c0 9.8-13.8 17.8-30.8 17.8s-30.8-8-30.8-17.8V278M581.6 252.8L509.1 211"/>
  <ellipse cx="509.1" cy="236.1" rx="30.8" ry="17.8"/>
  <path d="M539.8 236.1v16.7c0 9.8-13.8 17.8-30.8 17.8s-30.8-8-30.8-17.8v-16.7M509.1 211l-72.5-41.9M436.6 169.1L364 211"/>
  <ellipse cx="436.6" cy="194.2" rx="30.8" ry="17.8"/>
  <path d="M467.3 194.2V211c0 9.8-13.8 17.8-30.8 17.8s-30.8-8-30.8-17.8v-16.7M581.6 420.3v100.5M654.1 378.4l-72.5 41.9M581.6 420.3l-72.5-41.9M654.1 478.9l-72.5 41.9M581.6 520.8l-72.5-41.9"/>
  <ellipse cx="581.6" cy="361.7" rx="30.8" ry="17.8"/>
  <path d="M612.4 361.7v16.7c0 9.8-13.8 17.8-30.8 17.8s-30.8-8-30.8-17.8v-16.7M509.1 378.4l-72.5-41.8M509.1 478.9l-72.5-41.8"/>
  <ellipse cx="509.1" cy="319.8" rx="30.8" ry="17.8"/>
  <path d="M539.8 319.8v16.7c0 9.8-13.8 17.8-30.8 17.8s-30.8-8-30.8-17.8v-16.7M436.6 336.6L364 294.7M436.6 437.1L364 395.2"/>
  <ellipse cx="436.6" cy="278" rx="30.8" ry="17.8"/>
  <path d="M467.3 278v16.7c0 9.8-13.8 17.8-30.8 17.8s-30.8-8-30.8-17.8V278M291.5 252.8v100.5M364 211l-72.5 41.8M364 294.7l-72.5-41.9M364 395.2l-72.5-41.9"/>
  <ellipse cx="364" cy="236.1" rx="30.8" ry="17.8"/>
  <path d="M394.8 236.1v16.7c0 9.8-13.8 17.8-30.8 17.8s-30.8-8-30.8-17.8v-16.7"/>
</svg>
