<svg viewBox="0 0 873.1 623.5">
  <path d="M146.5 438.1v100.5M146.5 438.1l72.5-41.9M146.5 438.1L219 480M146.5 538.6l72.5 41.8"/>
  <ellipse cx="219" cy="421.3" rx="30.8" ry="17.8"/>
  <path d="M188.2 421.3V438c0 9.8 13.8 17.8 30.8 17.8s30.8-8 30.8-17.8v-16.7M219 396.2l72.5-41.9"/>
  <ellipse cx="291.5" cy="379.5" rx="30.8" ry="17.8"/>
  <path d="M260.7 379.5v16.7c0 9.8 13.8 17.8 30.8 17.8s30.8-8 30.8-17.8v-16.7M291.5 354.3l72.5-41.8M364 355.4c-17 0-30.8-8-30.8-17.8s13.8-17.8 30.8-17.8"/>
  <path d="M333.3 337.6v16.7c0 9.8 13.8 17.8 30.8 17.8M291.5 521.8v100.5M219 480l72.5 41.8M291.5 521.8L364 480M219 580.4l72.5 41.9M291.5 622.3l72.5-41.9"/>
  <ellipse cx="291.5" cy="463.2" rx="30.8" ry="17.8"/>
  <path d="M260.7 463.2V480c0 9.8 13.8 17.8 30.8 17.8s30.8-8 30.8-17.8v-16.7M364 480l72.6-41.9M364 580.4l72.6-41.8"/>
  <ellipse cx="364" cy="421.3" rx="30.8" ry="17.8"/>
  <path d="M333.3 421.3V438c0 9.8 13.8 17.8 30.8 17.8s30.8-8 30.8-17.8v-16.7M436.6 538.6l72.5-41.9M509.1 496.7l14.5-8.4M799.2 379.6v100.5M799.2 379.6l-72.6-41.9M799.2 379.6l-72.6 41.9M799.2 480.1l-72.6 41.8"/>
  <ellipse cx="726.6" cy="362.8" rx="30.8" ry="17.8"/>
  <path d="M757.4 362.8v16.7c0 9.8-13.8 17.8-30.8 17.8s-30.8-8-30.8-17.8v-16.7M726.6 337.7l-72.5-41.9"/>
  <ellipse cx="654.1" cy="321" rx="30.8" ry="17.8"/>
  <path d="M684.9 321v16.7c0 9.8-13.8 17.8-30.8 17.8s-30.8-8-30.8-17.8V321M654.1 295.8L581.6 254"/>
  <ellipse cx="581.6" cy="279.1" rx="30.8" ry="17.8"/>
  <path d="M612.4 279.1v16.7c0 9.8-13.8 17.8-30.8 17.8s-30.8-8-30.8-17.8v-16.7M581.6 254l-72.5-41.9M509.1 212.1L436.6 254"/>
  <ellipse cx="509.1" cy="237.2" rx="30.8" ry="17.8"/>
  <path d="M539.8 237.2V254c0 9.8-13.8 17.8-30.8 17.8s-30.8-8-30.8-17.8v-16.7M654.1 463.3v100.5M726.6 421.5l-72.5 41.8M654.1 463.3l-72.5-41.8M726.6 521.9l-72.5 41.9M654.1 563.8l-72.5-41.9"/>
  <ellipse cx="654.1" cy="404.7" rx="30.8" ry="17.8"/>
  <path d="M684.9 404.7v16.7c0 9.8-13.8 17.8-30.8 17.8s-30.8-8-30.8-17.8v-16.7M581.6 421.5l-72.5-41.9M581.6 521.9l-72.5-41.8"/>
  <ellipse cx="581.6" cy="362.8" rx="30.8" ry="17.8"/>
  <path d="M612.4 362.8v16.7c0 9.8-13.8 17.8-30.8 17.8s-30.8-8-30.8-17.8v-16.7M509.1 379.6l-72.5-41.9M509.1 480.1l-72.5-41.9"/>
  <ellipse cx="509.1" cy="321" rx="30.8" ry="17.8"/>
  <path d="M539.8 321v16.7c0 9.8-13.8 17.8-30.8 17.8s-30.8-8-30.8-17.8V321M364 295.8v100.5M436.6 254L364 295.8M436.6 337.7L364 295.8M436.6 438.2L364 396.3"/>
  <ellipse cx="436.6" cy="279.1" rx="30.8" ry="17.8"/>
  <path d="M467.3 279.1v16.7c0 9.8-13.8 17.8-30.8 17.8s-30.8-8-30.8-17.8v-16.7"/>
</svg>
