<svg viewBox="0 0 873.1 623.5">
  <path d="M146.5 438.1v100.5M146.5 438.1l72.5-41.9M146.5 438.1L219 480M146.5 538.6l72.5 41.8"/>
  <ellipse cx="219" cy="421.3" rx="30.8" ry="17.8"/>
  <path d="M188.2 421.3V438c0 9.8 13.8 17.8 30.8 17.8s30.8-8 30.8-17.8v-16.7M219 396.2l72.5-41.9"/>
  <ellipse cx="291.5" cy="379.5" rx="30.8" ry="17.8"/>
  <path d="M260.7 379.5v16.7c0 9.8 13.8 17.8 30.8 17.8s30.8-8 30.8-17.8v-16.7M291.5 354.3l72.5-41.8"/>
  <ellipse cx="364" cy="337.6" rx="30.8" ry="17.8"/>
  <path d="M333.3 337.6v16.7c0 9.8 13.8 17.8 30.8 17.8s30.8-8 30.8-17.8v-16.7M291.5 521.8v100.5M219 480l72.5 41.8M291.5 521.8L364 480M219 580.4l72.5 41.9M291.5 622.3l72.5-41.9"/>
  <ellipse cx="291.5" cy="463.2" rx="30.8" ry="17.8"/>
  <path d="M260.7 463.2V480c0 9.8 13.8 17.8 30.8 17.8s30.8-8 30.8-17.8v-16.7M364 480l72.6-41.9M364 580.4l72.6-41.8"/>
  <ellipse cx="364" cy="421.3" rx="30.8" ry="17.8"/>
  <path d="M333.3 421.3V438c0 9.8 13.8 17.8 30.8 17.8s30.8-8 30.8-17.8v-16.7M436.6 438.1l72.5-41.9M436.6 538.6l72.5-41.9"/>
  <ellipse cx="436.6" cy="379.5" rx="30.8" ry="17.8"/>
  <path d="M405.8 379.5v16.7c0 9.8 13.8 17.8 30.8 17.8s30.8-8 30.8-17.8v-16.7M581.6 354.3v100.5M509.1 312.5l72.5 41.8M509.1 396.2l72.5-41.9M509.1 496.7l72.5-41.9"/>
  <ellipse cx="509.1" cy="337.6" rx="30.8" ry="17.8"/>
  <path d="M478.3 337.6v16.7c0 9.8 13.8 17.8 30.8 17.8s30.8-8 30.8-17.8v-16.7M581.6 168.7v100.5M581.6 168.7l-72.5-41.9M581.6 168.7l-72.5 41.9M581.6 269.2l-72.5 41.9"/>
  <ellipse cx="509.1" cy="152" rx="30.8" ry="17.8"/>
  <path d="M539.8 152v16.7c0 9.8-13.8 17.8-30.8 17.8s-30.8-8-30.8-17.8V152M509.1 126.8L436.6 85"/>
  <ellipse cx="436.6" cy="110.1" rx="30.8" ry="17.8"/>
  <path d="M467.3 110.1v16.7c0 9.8-13.8 17.8-30.8 17.8s-30.8-8-30.8-17.8v-16.7M436.6 85L364 43.1"/>
  <ellipse cx="364" cy="68.2" rx="30.8" ry="17.8"/>
  <path d="M394.8 68.2V85c0 9.8-13.8 17.8-30.8 17.8s-30.8-8-30.8-17.8V68.2M364 43.1L291.5 1.2M291.5 1.2L219 43.1"/>
  <ellipse cx="291.5" cy="26.3" rx="30.8" ry="17.8"/>
  <path d="M322.3 26.3V43c0 9.8-13.8 17.8-30.8 17.8s-30.8-8-30.8-17.8V26.3M436.6 252.5v100.4M509.1 210.6l-72.5 41.9M436.6 252.5L364 210.6M509.1 311.1l-72.5 41.8M436.6 352.9L364 311.1"/>
  <ellipse cx="436.6" cy="193.8" rx="30.8" ry="17.8"/>
  <path d="M467.3 193.8v16.7c0 9.8-13.8 17.8-30.8 17.8s-30.8-8-30.8-17.8v-16.7M364 210.6l-72.5-41.9M364 311.1l-72.5-41.9"/>
  <ellipse cx="364" cy="152" rx="30.8" ry="17.8"/>
  <path d="M394.8 152v16.7c0 9.8-13.8 17.8-30.8 17.8s-30.8-8-30.8-17.8V152M291.5 168.7L219 126.8M291.5 269.2L219 227.3"/>
  <ellipse cx="291.5" cy="110.1" rx="30.8" ry="17.8"/>
  <path d="M322.3 110.1v16.7c0 9.8-13.8 17.8-30.8 17.8s-30.8-8-30.8-17.8v-16.7M146.5 85v100.5M219 43.1L146.5 85M219 126.8L146.5 85M219 227.3l-72.5-41.8"/>
  <ellipse cx="219" cy="68.2" rx="30.8" ry="17.8"/>
  <path d="M249.8 68.2V85c0 9.8-13.8 17.8-30.8 17.8s-30.8-8-30.8-17.8V68.2"/>
</svg>
