<svg viewBox="0 0 873.1 623.5">
  <path d="M146.5 438.1v100.5M146.5 438.1l72.5-41.9M146.5 438.1L219 480M146.5 538.6l72.5 41.8"/>
  <ellipse cx="219" cy="421.3" rx="30.8" ry="17.8"/>
  <path d="M188.2 421.3V438c0 9.8 13.8 17.8 30.8 17.8s30.8-8 30.8-17.8v-16.7M219 396.2l72.5-41.9"/>
  <ellipse cx="291.5" cy="379.5" rx="30.8" ry="17.8"/>
  <path d="M260.7 379.5v16.7c0 9.8 13.8 17.8 30.8 17.8s30.8-8 30.8-17.8v-16.7M291.5 354.3l72.5-41.8"/>
  <ellipse cx="364" cy="337.6" rx="30.8" ry="17.8"/>
  <path d="M333.3 337.6v16.7c0 9.8 13.8 17.8 30.8 17.8s30.8-8 30.8-17.8v-16.7M291.5 521.8v100.5M219 480l72.5 41.8M291.5 521.8L364 480M219 580.4l72.5 41.9M291.5 622.3l72.5-41.9"/>
  <ellipse cx="291.5" cy="463.2" rx="30.8" ry="17.8"/>
  <path d="M260.7 463.2V480c0 9.8 13.8 17.8 30.8 17.8s30.8-8 30.8-17.8v-16.7M364 480l72.6-41.9M364 580.4l72.6-41.8"/>
  <ellipse cx="364" cy="421.3" rx="30.8" ry="17.8"/>
  <path d="M333.3 421.3V438c0 9.8 13.8 17.8 30.8 17.8s30.8-8 30.8-17.8v-16.7M436.6 438.1l72.5-41.9M436.6 538.6l72.5-41.9"/>
  <ellipse cx="436.6" cy="379.5" rx="30.8" ry="17.8"/>
  <path d="M405.8 379.5v16.7c0 9.8 13.8 17.8 30.8 17.8s30.8-8 30.8-17.8v-16.7M581.6 354.3v100.5M509.1 396.2l72.5-41.9M509.1 496.7l72.5-41.9M654.1 212v100.5M654.1 212l-72.5-41.9M654.1 212l-72.5 41.9M654.1 312.5l-72.5 41.8"/>
  <ellipse cx="581.6" cy="195.2" rx="30.8" ry="17.8"/>
  <path d="M612.4 195.2V212c0 9.8-13.8 17.8-30.8 17.8s-30.8-8-30.8-17.8v-16.7M581.6 170.1l-72.5-41.9"/>
  <ellipse cx="509.1" cy="153.4" rx="30.8" ry="17.8"/>
  <path d="M539.8 153.4v16.7c0 9.8-13.8 17.8-30.8 17.8s-30.8-8-30.8-17.8v-16.7M509.1 128.2l-72.5-41.8"/>
  <ellipse cx="436.6" cy="111.5" rx="30.8" ry="17.8"/>
  <path d="M467.3 111.5v16.7c0 9.8-13.8 17.8-30.8 17.8s-30.8-8-30.8-17.8v-16.7M436.6 86.4L364 44.5M364 44.5l-72.5 41.9"/>
  <ellipse cx="364" cy="69.6" rx="30.8" ry="17.8"/>
  <path d="M394.8 69.6v16.7c0 9.8-13.8 17.8-30.8 17.8s-30.8-8-30.8-17.8V69.6M509.1 295.7v100.5M581.6 253.9l-72.5 41.8M509.1 295.7l-72.5-41.8M581.6 354.3l-72.5 41.9M509.1 396.2l-72.5-41.9"/>
  <ellipse cx="509.1" cy="237.1" rx="30.8" ry="17.8"/>
  <path d="M539.8 237.1v16.7c0 9.8-13.8 17.8-30.8 17.8s-30.8-8-30.8-17.8v-16.7M436.6 253.9L364 212M436.6 354.3L364 312.5"/>
  <ellipse cx="436.6" cy="195.2" rx="30.8" ry="17.8"/>
  <path d="M467.3 195.2V212c0 9.8-13.8 17.8-30.8 17.8s-30.8-8-30.8-17.8v-16.7M364 212l-72.5-41.9M364 312.5l-72.5-41.9"/>
  <ellipse cx="364" cy="153.4" rx="30.8" ry="17.8"/>
  <path d="M394.8 153.4v16.7c0 9.8-13.8 17.8-30.8 17.8s-30.8-8-30.8-17.8v-16.7M219 128.2v100.5M291.5 86.4L219 128.2M291.5 170.1L219 128.2M291.5 270.6L219 228.7"/>
  <ellipse cx="291.5" cy="111.5" rx="30.8" ry="17.8"/>
  <path d="M322.3 111.5v16.7c0 9.8-13.8 17.8-30.8 17.8s-30.8-8-30.8-17.8v-16.7"/>
</svg>
