<svg viewBox="0 0 873.1 623.5">
  <path d="M146.5 438.1v100.5M146.5 438.1l72.5-41.9M146.5 438.1L219 480M146.5 538.6l72.5 41.8"/>
  <ellipse cx="219" cy="421.3" rx="30.8" ry="17.8"/>
  <path d="M188.2 421.3V438c0 9.8 13.8 17.8 30.8 17.8s30.8-8 30.8-17.8v-16.7M219 396.2l72.5-41.9"/>
  <ellipse cx="291.5" cy="379.5" rx="30.8" ry="17.8"/>
  <path d="M260.7 379.5v16.7c0 9.8 13.8 17.8 30.8 17.8s30.8-8 30.8-17.8v-16.7M291.5 354.3l72.5-41.8"/>
  <ellipse cx="364" cy="337.6" rx="30.8" ry="17.8"/>
  <path d="M333.3 337.6v16.7c0 9.8 13.8 17.8 30.8 17.8s30.8-8 30.8-17.8v-16.7M291.5 521.8v100.5M219 480l72.5 41.8M291.5 521.8L364 480M219 580.4l72.5 41.9M291.5 622.3l72.5-41.9"/>
  <ellipse cx="291.5" cy="463.2" rx="30.8" ry="17.8"/>
  <path d="M260.7 463.2V480c0 9.8 13.8 17.8 30.8 17.8s30.8-8 30.8-17.8v-16.7M364 480l72.6-41.9M364 580.4l72.6-41.8"/>
  <ellipse cx="364" cy="421.3" rx="30.8" ry="17.8"/>
  <path d="M333.3 421.3V438c0 9.8 13.8 17.8 30.8 17.8s30.8-8 30.8-17.8v-16.7M436.6 438.1l72.5-41.9M436.6 538.6l72.5-41.9"/>
  <ellipse cx="436.6" cy="379.5" rx="30.8" ry="17.8"/>
  <path d="M405.8 379.5v16.7c0 9.8 13.8 17.8 30.8 17.8s30.8-8 30.8-17.8v-16.7M581.6 354.3v100.5M509.1 496.7l72.5-41.9M726.6 252.8v100.5M726.6 252.8L654.1 211M726.6 252.8l-72.5 41.9M726.6 353.3l-72.5 41.9"/>
  <ellipse cx="654.1" cy="236.1" rx="30.8" ry="17.8"/>
  <path d="M684.9 236.1v16.7c0 9.8-13.8 17.8-30.8 17.8s-30.8-8-30.8-17.8v-16.7M654.1 211l-72.5-41.9"/>
  <ellipse cx="581.6" cy="194.2" rx="30.8" ry="17.8"/>
  <path d="M612.4 194.2V211c0 9.8-13.8 17.8-30.8 17.8s-30.8-8-30.8-17.8v-16.7M581.6 169.1l-72.5-41.9"/>
  <ellipse cx="509.1" cy="152.3" rx="30.8" ry="17.8"/>
  <path d="M539.8 152.3V169c0 9.8-13.8 17.8-30.8 17.8s-30.8-8-30.8-17.8v-16.7M509.1 127.2l-72.5-41.8M436.6 85.4L364 127.2"/>
  <ellipse cx="436.6" cy="110.5" rx="30.8" ry="17.8"/>
  <path d="M467.3 110.5v16.7c0 9.8-13.8 17.8-30.8 17.8s-30.8-8-30.8-17.8v-16.7M581.6 336.6v100.5M654.1 294.7l-72.5 41.9M581.6 336.6l-72.5-41.9M654.1 395.2l-72.5 41.9M581.6 437.1l-72.5-41.9"/>
  <ellipse cx="581.6" cy="278" rx="30.8" ry="17.8"/>
  <path d="M612.4 278v16.7c0 9.8-13.8 17.8-30.8 17.8s-30.8-8-30.8-17.8V278M509.1 294.7l-72.5-41.9M509.1 395.2l-72.5-41.9"/>
  <ellipse cx="509.1" cy="236.1" rx="30.8" ry="17.8"/>
  <path d="M539.8 236.1v16.7c0 9.8-13.8 17.8-30.8 17.8s-30.8-8-30.8-17.8v-16.7M436.6 252.8L364 211M436.6 353.3L364 311.5"/>
  <ellipse cx="436.6" cy="194.2" rx="30.8" ry="17.8"/>
  <path d="M467.3 194.2V211c0 9.8-13.8 17.8-30.8 17.8s-30.8-8-30.8-17.8v-16.7M291.5 169.1v100.5M364 127.2l-72.5 41.9M364 211l-72.5-41.9M364 311.5l-72.5-41.9"/>
  <ellipse cx="364" cy="152.3" rx="30.8" ry="17.8"/>
  <path d="M394.8 152.3V169c0 9.8-13.8 17.8-30.8 17.8s-30.8-8-30.8-17.8v-16.7"/>
</svg>
