<svg viewBox="0 0 873.1 623.5">
  <path d="M146.5 438.1v100.5M146.5 438.1l72.5-41.9M146.5 438.1L219 480M146.5 538.6l72.5 41.8"/>
  <ellipse cx="219" cy="421.3" rx="30.8" ry="17.8"/>
  <path d="M188.2 421.3V438c0 9.8 13.8 17.8 30.8 17.8s30.8-8 30.8-17.8v-16.7M291.5 521.8v100.5M219 480l72.5 41.8M291.5 521.8L364 480M219 580.4l72.5 41.9M291.5 622.3l72.5-41.9"/>
  <ellipse cx="291.5" cy="463.2" rx="30.8" ry="17.8"/>
  <path d="M260.7 463.2V480c0 9.8 13.8 17.8 30.8 17.8s30.8-8 30.8-17.8v-16.7M364 480l72.6-41.9M364 580.4l72.6-41.8"/>
  <ellipse cx="364" cy="421.3" rx="30.8" ry="17.8"/>
  <path d="M333.3 421.3V438c0 9.8 13.8 17.8 30.8 17.8s30.8-8 30.8-17.8v-16.7M436.6 438.1l72.5-41.9M436.6 538.6l72.5-41.9"/>
  <ellipse cx="436.6" cy="379.5" rx="30.8" ry="17.8"/>
  <path d="M405.8 379.5v16.7c0 9.8 13.8 17.8 30.8 17.8s30.8-8 30.8-17.8v-16.7M581.6 354.3v100.5M509.1 312.5l72.5 41.8M509.1 396.2l72.5-41.9M509.1 496.7l72.5-41.9"/>
  <ellipse cx="509.1" cy="337.6" rx="30.8" ry="17.8"/>
  <path d="M478.3 337.6v16.7c0 9.8 13.8 17.8 30.8 17.8s30.8-8 30.8-17.8v-16.7M146.5 253.9v100.4M146.5 253.9L219 212M146.5 253.9l72.5 41.8M146.5 354.3l72.5 41.9"/>
  <ellipse cx="219" cy="237.1" rx="30.8" ry="17.8"/>
  <path d="M188.2 237.1v16.7c0 9.8 13.8 17.8 30.8 17.8s30.8-8 30.8-17.8v-16.7M219 212l72.5-41.9"/>
  <ellipse cx="291.5" cy="195.2" rx="30.8" ry="17.8"/>
  <path d="M260.7 195.2V212c0 9.8 13.8 17.8 30.8 17.8s30.8-8 30.8-17.8v-16.7M291.5 170.1l72.5-41.9"/>
  <ellipse cx="364" cy="153.4" rx="30.8" ry="17.8"/>
  <path d="M333.3 153.4v16.7c0 9.8 13.8 17.8 30.8 17.8s30.8-8 30.8-17.8v-16.7M364 128.2l72.6-41.8M436.6 86.4l72.5 41.8"/>
  <ellipse cx="436.6" cy="111.5" rx="30.8" ry="17.8"/>
  <path d="M405.8 111.5v16.7c0 9.8 13.8 17.8 30.8 17.8s30.8-8 30.8-17.8v-16.7M291.5 337.6v100.5M219 295.7l72.5 41.9M291.5 337.6l72.5-41.9M219 396.2l72.5 41.9M291.5 438.1l72.5-41.9"/>
  <ellipse cx="291.5" cy="279" rx="30.8" ry="17.8"/>
  <path d="M260.7 279v16.7c0 9.8 13.8 17.8 30.8 17.8s30.8-8 30.8-17.8V279M364 295.7l72.6-41.8M364 396.2l72.6-41.9"/>
  <ellipse cx="364" cy="237.1" rx="30.8" ry="17.8"/>
  <path d="M333.3 237.1v16.7c0 9.8 13.8 17.8 30.8 17.8s30.8-8 30.8-17.8v-16.7M436.6 253.9l72.5-41.9M436.6 354.3l72.5-41.8"/>
  <ellipse cx="436.6" cy="195.2" rx="30.8" ry="17.8"/>
  <path d="M405.8 195.2V212c0 9.8 13.8 17.8 30.8 17.8s30.8-8 30.8-17.8v-16.7M581.6 170.1v100.5M509.1 128.2l72.5 41.9M509.1 212l72.5-41.9M509.1 312.5l72.5-41.9"/>
  <ellipse cx="509.1" cy="153.4" rx="30.8" ry="17.8"/>
  <path d="M478.3 153.4v16.7c0 9.8 13.8 17.8 30.8 17.8s30.8-8 30.8-17.8v-16.7"/>
</svg>
