<svg viewBox="0 0 873.1 623.5">
  <path d="M146.5 438.1v100.5M146.5 438.1l72.5-41.9M146.5 438.1L219 480M146.5 538.6l72.5 41.8"/>
  <ellipse cx="219" cy="421.3" rx="30.8" ry="17.8"/>
  <path d="M188.2 421.3V438c0 9.8 13.8 17.8 30.8 17.8s30.8-8 30.8-17.8v-16.7M219 396.2l72.5-41.9"/>
  <ellipse cx="291.5" cy="379.5" rx="30.8" ry="17.8"/>
  <path d="M260.7 379.5v16.7c0 9.8 13.8 17.8 30.8 17.8s30.8-8 30.8-17.8v-16.7M291.5 521.8v100.5M219 480l72.5 41.8M291.5 521.8L364 480M219 580.4l72.5 41.9M291.5 622.3l72.5-41.9"/>
  <ellipse cx="291.5" cy="463.2" rx="30.8" ry="17.8"/>
  <path d="M260.7 463.2V480c0 9.8 13.8 17.8 30.8 17.8s30.8-8 30.8-17.8v-16.7M364 480l72.6-41.9M364 580.4l72.6-41.8"/>
  <ellipse cx="364" cy="421.3" rx="30.8" ry="17.8"/>
  <path d="M333.3 421.3V438c0 9.8 13.8 17.8 30.8 17.8s30.8-8 30.8-17.8v-16.7M436.6 438.1l72.5-41.9M436.6 538.6l72.5-41.9"/>
  <ellipse cx="436.6" cy="379.5" rx="30.8" ry="17.8"/>
  <path d="M405.8 379.5v16.7c0 9.8 13.8 17.8 30.8 17.8s30.8-8 30.8-17.8v-16.7M581.6 354.3v100.5M509.1 312.5l72.5 41.8M509.1 396.2l72.5-41.9M509.1 496.7l72.5-41.9"/>
  <ellipse cx="509.1" cy="337.6" rx="30.8" ry="17.8"/>
  <path d="M478.3 337.6v16.7c0 9.8 13.8 17.8 30.8 17.8s30.8-8 30.8-17.8v-16.7M219 212.5V313M219 212.5l72.5-41.9M219 212.5l72.5 41.9M219 313l72.5 41.9"/>
  <ellipse cx="291.5" cy="195.7" rx="30.8" ry="17.8"/>
  <path d="M260.7 195.7v16.7c0 9.8 13.8 17.8 30.8 17.8s30.8-8 30.8-17.8v-16.7M291.5 170.6l72.5-41.9"/>
  <ellipse cx="364" cy="153.9" rx="30.8" ry="17.8"/>
  <path d="M333.3 153.9v16.7c0 9.8 13.8 17.8 30.8 17.8s30.8-8 30.8-17.8v-16.7M364 128.7l72.6-41.8"/>
  <ellipse cx="436.6" cy="112" rx="30.8" ry="17.8"/>
  <path d="M405.8 112v16.7c0 9.8 13.8 17.8 30.8 17.8s30.8-8 30.8-17.8V112M436.6 86.9L509.1 45M509.1 45l72.5 41.9"/>
  <ellipse cx="509.1" cy="70.1" rx="30.8" ry="17.8"/>
  <path d="M478.3 70.1v16.7c0 9.8 13.8 17.8 30.8 17.8s30.8-8 30.8-17.8V70.1M364 296.2v100.5M291.5 254.4l72.5 41.8M364 296.2l72.6-41.8M291.5 354.9l72.5 41.8M364 396.7l72.6-41.8"/>
  <ellipse cx="364" cy="237.6" rx="30.8" ry="17.8"/>
  <path d="M333.3 237.6v16.7c0 9.8 13.8 17.8 30.8 17.8s30.8-8 30.8-17.8v-16.7M436.6 254.4l72.5-41.9M436.6 354.9l72.5-41.9"/>
  <ellipse cx="436.6" cy="195.7" rx="30.8" ry="17.8"/>
  <path d="M405.8 195.7v16.7c0 9.8 13.8 17.8 30.8 17.8s30.8-8 30.8-17.8v-16.7M509.1 212.5l72.5-41.9M509.1 313l72.5-41.9"/>
  <ellipse cx="509.1" cy="153.9" rx="30.8" ry="17.8"/>
  <path d="M478.3 153.9v16.7c0 9.8 13.8 17.8 30.8 17.8s30.8-8 30.8-17.8v-16.7M654.1 128.7v100.5M581.6 86.9l72.5 41.8M581.6 170.6l72.5-41.9M581.6 271.1l72.5-41.9"/>
  <ellipse cx="581.6" cy="112" rx="30.8" ry="17.8"/>
  <path d="M550.8 112v16.7c0 9.8 13.8 17.8 30.8 17.8s30.8-8 30.8-17.8V112"/>
</svg>
