<svg viewBox="0 0 873.1 623.5">
  <path d="M436.6 253.9v100.4M436.6 253.9l72.5-41.9M436.6 253.9l72.5 41.8M436.6 354.3l72.5 41.9"/>
  <ellipse cx="509.1" cy="237.1" rx="30.8" ry="17.8"/>
  <path d="M478.3 237.1v16.7c0 9.8 13.8 17.8 30.8 17.8s30.8-8 30.8-17.8v-16.7M509.1 212l72.5-41.9"/>
  <ellipse cx="581.6" cy="195.2" rx="30.8" ry="17.8"/>
  <path d="M550.8 195.2V212c0 9.8 13.8 17.8 30.8 17.8s30.8-8 30.8-17.8v-16.7M581.6 170.1l72.5-41.9"/>
  <ellipse cx="654.1" cy="153.4" rx="30.8" ry="17.8"/>
  <path d="M623.4 153.4v16.7c0 9.8 13.8 17.8 30.8 17.8s30.8-8 30.8-17.8v-16.7M654.1 128.2l72.5-41.8M726.6 86.4l72.6 41.8"/>
  <ellipse cx="726.6" cy="111.5" rx="30.8" ry="17.8"/>
  <path d="M695.9 111.5v16.7c0 9.8 13.8 17.8 30.8 17.8s30.8-8 30.8-17.8v-16.7M581.6 337.6v100.5M509.1 295.7l72.5 41.9M581.6 337.6l72.5-41.9M509.1 396.2l72.5 41.9M581.6 438.1l72.5-41.9"/>
  <ellipse cx="581.6" cy="279" rx="30.8" ry="17.8"/>
  <path d="M550.8 279v16.7c0 9.8 13.8 17.8 30.8 17.8s30.8-8 30.8-17.8V279M654.1 295.7l72.5-41.8M654.1 396.2l72.5-41.9"/>
  <ellipse cx="654.1" cy="237.1" rx="30.8" ry="17.8"/>
  <path d="M623.4 237.1v16.7c0 9.8 13.8 17.8 30.8 17.8s30.8-8 30.8-17.8v-16.7M726.6 253.9l72.6-41.9M726.6 354.3l72.6-41.8"/>
  <ellipse cx="726.6" cy="195.2" rx="30.8" ry="17.8"/>
  <path d="M695.9 195.2V212c0 9.8 13.8 17.8 30.8 17.8s30.8-8 30.8-17.8v-16.7M871.7 170.1v100.5M799.2 128.2l72.5 41.9M799.2 212l72.5-41.9M799.2 312.5l72.5-41.9"/>
  <ellipse cx="799.2" cy="153.4" rx="30.8" ry="17.8"/>
  <path d="M768.4 153.4v16.7c0 9.8 13.8 17.8 30.8 17.8s30.8-8 30.8-17.8v-16.7M146.5 438.1v100.5M146.5 438.1l72.5-41.9M146.5 438.1L219 480M146.5 538.6l72.5 41.8"/>
  <ellipse cx="219" cy="421.3" rx="30.8" ry="17.8"/>
  <path d="M188.2 421.3V438c0 9.8 13.8 17.8 30.8 17.8s30.8-8 30.8-17.8v-16.7M219 396.2l72.5-41.9"/>
  <ellipse cx="291.5" cy="379.5" rx="30.8" ry="17.8"/>
  <path d="M260.7 379.5v16.7c0 9.8 13.8 17.8 30.8 17.8s30.8-8 30.8-17.8v-16.7M291.5 354.3l72.5-41.8"/>
  <ellipse cx="364" cy="337.6" rx="30.8" ry="17.8"/>
  <path d="M333.3 337.6v16.7c0 9.8 13.8 17.8 30.8 17.8s30.8-8 30.8-17.8v-16.7M364 312.5l72.6-41.9M436.6 313.5c-17 0-30.8-8-30.8-17.8s13.8-17.8 30.8-17.8"/>
  <path d="M405.8 295.7v16.7c0 9.8 13.8 17.8 30.8 17.8M291.5 521.8v100.5M219 480l72.5 41.8M291.5 521.8L364 480M219 580.4l72.5 41.9M291.5 622.3l72.5-41.9"/>
  <ellipse cx="291.5" cy="463.2" rx="30.8" ry="17.8"/>
  <path d="M260.7 463.2V480c0 9.8 13.8 17.8 30.8 17.8s30.8-8 30.8-17.8v-16.7M364 480l72.6-41.9M364 580.4l72.6-41.8"/>
  <ellipse cx="364" cy="421.3" rx="30.8" ry="17.8"/>
  <path d="M333.3 421.3V438c0 9.8 13.8 17.8 30.8 17.8s30.8-8 30.8-17.8v-16.7M436.6 438.1l72.5-41.9M436.6 538.6l72.5-41.9"/>
  <ellipse cx="436.6" cy="379.5" rx="30.8" ry="17.8"/>
  <path d="M405.8 379.5v16.7c0 9.8 13.8 17.8 30.8 17.8s30.8-8 30.8-17.8v-16.7M581.6 354.3v100.5M509.1 496.7l72.5-41.9"/>
</svg>
