<svg viewBox="0 0 873.1 623.5">
  <path d="M364 294.7v100.5M364 294.7l72.6-41.9M364 294.7l72.6 41.9M364 395.2l72.6 41.9"/>
  <ellipse cx="436.6" cy="278" rx="30.8" ry="17.8"/>
  <path d="M405.8 278v16.7c0 9.8 13.8 17.8 30.8 17.8s30.8-8 30.8-17.8V278M436.6 252.8l72.5-41.8"/>
  <ellipse cx="509.1" cy="236.1" rx="30.8" ry="17.8"/>
  <path d="M478.3 236.1v16.7c0 9.8 13.8 17.8 30.8 17.8s30.8-8 30.8-17.8v-16.7M509.1 211l72.5-41.9"/>
  <ellipse cx="581.6" cy="194.2" rx="30.8" ry="17.8"/>
  <path d="M550.8 194.2V211c0 9.8 13.8 17.8 30.8 17.8s30.8-8 30.8-17.8v-16.7M581.6 169.1l72.5-41.9M654.1 127.2l72.5 41.9"/>
  <ellipse cx="654.1" cy="152.3" rx="30.8" ry="17.8"/>
  <path d="M623.4 152.3V169c0 9.8 13.8 17.8 30.8 17.8s30.8-8 30.8-17.8v-16.7M509.1 378.4v100.5M436.6 336.6l72.5 41.8M509.1 378.4l72.5-41.8M436.6 437.1l72.5 41.8M509.1 478.9l72.5-41.8"/>
  <ellipse cx="509.1" cy="319.8" rx="30.8" ry="17.8"/>
  <path d="M478.3 319.8v16.7c0 9.8 13.8 17.8 30.8 17.8s30.8-8 30.8-17.8v-16.7M581.6 336.6l72.5-41.9M581.6 437.1l72.5-41.9"/>
  <ellipse cx="581.6" cy="278" rx="30.8" ry="17.8"/>
  <path d="M550.8 278v16.7c0 9.8 13.8 17.8 30.8 17.8s30.8-8 30.8-17.8V278M654.1 294.7l72.5-41.9M654.1 395.2l72.5-41.9"/>
  <ellipse cx="654.1" cy="236.1" rx="30.8" ry="17.8"/>
  <path d="M623.4 236.1v16.7c0 9.8 13.8 17.8 30.8 17.8s30.8-8 30.8-17.8v-16.7M799.2 211v100.5M726.6 169.1l72.6 41.9M726.6 252.8l72.6-41.8M726.6 353.3l72.6-41.8"/>
  <ellipse cx="726.6" cy="194.2" rx="30.8" ry="17.8"/>
  <path d="M695.9 194.2V211c0 9.8 13.8 17.8 30.8 17.8s30.8-8 30.8-17.8v-16.7M146.5 438.1v100.5M146.5 438.1l72.5-41.9M146.5 438.1L219 480M146.5 538.6l72.5 41.8"/>
  <ellipse cx="219" cy="421.3" rx="30.8" ry="17.8"/>
  <path d="M188.2 421.3V438c0 9.8 13.8 17.8 30.8 17.8s30.8-8 30.8-17.8v-16.7M219 396.2l72.5-41.9"/>
  <ellipse cx="291.5" cy="379.5" rx="30.8" ry="17.8"/>
  <path d="M260.7 379.5v16.7c0 9.8 13.8 17.8 30.8 17.8s30.8-8 30.8-17.8v-16.7M291.5 354.3l72.5-41.8M364 355.4c-17 0-30.8-8-30.8-17.8s13.8-17.8 30.8-17.8"/>
  <path d="M333.3 337.6v16.7c0 9.8 13.8 17.8 30.8 17.8M291.5 521.8v100.5M219 480l72.5 41.8M291.5 521.8L364 480M219 580.4l72.5 41.9M291.5 622.3l72.5-41.9"/>
  <ellipse cx="291.5" cy="463.2" rx="30.8" ry="17.8"/>
  <path d="M260.7 463.2V480c0 9.8 13.8 17.8 30.8 17.8s30.8-8 30.8-17.8v-16.7M364 480l72.6-41.9M364 580.4l72.6-41.8"/>
  <ellipse cx="364" cy="421.3" rx="30.8" ry="17.8"/>
  <path d="M333.3 421.3V438c0 9.8 13.8 17.8 30.8 17.8s30.8-8 30.8-17.8v-16.7M436.6 538.6l72.5-41.9M581.6 437.1v17.7M509.1 496.7l72.5-41.9"/>
</svg>
