<svg viewBox="0 0 873.1 623.5">
  <path d="M291.5 337.6V438M291.5 337.6l72.5-41.9M291.5 337.6l72.5 41.8M291.5 438l72.5 41.9"/>
  <ellipse cx="364" cy="320.8" rx="30.8" ry="17.8"/>
  <path d="M333.3 320.8v16.7c0 9.8 13.8 17.8 30.8 17.8s30.8-8 30.8-17.8v-16.7M364 295.7l72.6-41.9"/>
  <ellipse cx="436.6" cy="278.9" rx="30.8" ry="17.8"/>
  <path d="M405.8 278.9v16.7c0 9.8 13.8 17.8 30.8 17.8s30.8-8 30.8-17.8v-16.7M436.6 253.8l72.5-41.9"/>
  <ellipse cx="509.1" cy="237.1" rx="30.8" ry="17.8"/>
  <path d="M478.3 237.1v16.7c0 9.8 13.8 17.8 30.8 17.8s30.8-8 30.8-17.8v-16.7M509.1 211.9l72.5-41.8M581.6 170.1l72.5 41.8"/>
  <ellipse cx="581.6" cy="195.2" rx="30.8" ry="17.8"/>
  <path d="M550.8 195.2v16.7c0 9.8 13.8 17.8 30.8 17.8s30.8-8 30.8-17.8v-16.7M436.6 421.3v100.5M364 379.4l72.6 41.9M436.6 421.3l72.5-41.9M364 479.9l72.6 41.9M436.6 521.8l72.5-41.9"/>
  <ellipse cx="436.6" cy="362.7" rx="30.8" ry="17.8"/>
  <path d="M405.8 362.7v16.7c0 9.8 13.8 17.8 30.8 17.8s30.8-8 30.8-17.8v-16.7M509.1 379.4l72.5-41.8M509.1 479.9l72.5-41.9"/>
  <ellipse cx="509.1" cy="320.8" rx="30.8" ry="17.8"/>
  <path d="M478.3 320.8v16.7c0 9.8 13.8 17.8 30.8 17.8s30.8-8 30.8-17.8v-16.7M581.6 337.6l72.5-41.9M581.6 438l72.5-41.8"/>
  <ellipse cx="581.6" cy="278.9" rx="30.8" ry="17.8"/>
  <path d="M550.8 278.9v16.7c0 9.8 13.8 17.8 30.8 17.8s30.8-8 30.8-17.8v-16.7M726.6 253.8v100.5M654.1 211.9l72.5 41.9M654.1 295.7l72.5-41.9M654.1 396.2l72.5-41.9"/>
  <ellipse cx="654.1" cy="237.1" rx="30.8" ry="17.8"/>
  <path d="M623.4 237.1v16.7c0 9.8 13.8 17.8 30.8 17.8s30.8-8 30.8-17.8v-16.7M146.5 438.1v100.5M146.5 438.1l72.5-41.9M146.5 438.1L219 480M146.5 538.6l72.5 41.8"/>
  <ellipse cx="219" cy="421.3" rx="30.8" ry="17.8"/>
  <path d="M188.2 421.3V438c0 9.8 13.8 17.8 30.8 17.8s30.8-8 30.8-17.8v-16.7M219 396.2l72.5-41.9M291.5 397.2c-17 0-30.8-8-30.8-17.8s13.8-17.8 30.8-17.8"/>
  <path d="M260.7 379.5v16.7c0 9.8 13.8 17.8 30.8 17.8M291.5 521.8v100.5M219 480l72.5 41.8M291.5 521.8L364 480M219 580.4l72.5 41.9M291.5 622.3l72.5-41.9"/>
  <ellipse cx="291.5" cy="463.2" rx="30.8" ry="17.8"/>
  <path d="M260.7 463.2V480c0 9.8 13.8 17.8 30.8 17.8s30.8-8 30.8-17.8v-16.7M364 580.4l72.6-41.8M436.6 538.6l72.5-41.9M581.6 438v16.8M509.1 496.7l72.5-41.9"/>
</svg>
