<svg viewBox="0 0 873.1 623.5">
  <path d="M146.5 438.1v100.5M146.5 438.1l72.5-41.9M146.5 438.1L219 480M146.5 538.6l72.5 41.8"/>
  <ellipse cx="219" cy="421.3" rx="30.8" ry="17.8"/>
  <path d="M188.2 421.3V438c0 9.8 13.8 17.8 30.8 17.8s30.8-8 30.8-17.8v-16.7M436.6 270.6l72.5 41.9M436.6 278c17 0 30.8 8 30.8 17.8s-13.8 17.8-30.8 17.8"/>
  <path d="M436.6 330.2c17 0 30.8-8 30.8-17.8v-16.7M291.5 521.8v100.5M219 480l72.5 41.8M291.5 521.8L364 480M219 580.4l72.5 41.9M291.5 622.3l72.5-41.9"/>
  <ellipse cx="291.5" cy="463.2" rx="30.8" ry="17.8"/>
  <path d="M260.7 463.2V480c0 9.8 13.8 17.8 30.8 17.8s30.8-8 30.8-17.8v-16.7M364 480l72.6-41.9M364 580.4l72.6-41.8"/>
  <ellipse cx="364" cy="421.3" rx="30.8" ry="17.8"/>
  <path d="M333.3 421.3V438c0 9.8 13.8 17.8 30.8 17.8s30.8-8 30.8-17.8v-16.7M436.6 438.1l72.5-41.9M436.6 538.6l72.5-41.9"/>
  <ellipse cx="436.6" cy="379.5" rx="30.8" ry="17.8"/>
  <path d="M405.8 379.5v16.7c0 9.8 13.8 17.8 30.8 17.8s30.8-8 30.8-17.8v-16.7M581.6 354.3v100.5M509.1 312.5l72.5 41.8M509.1 396.2l72.5-41.9M509.1 496.7l72.5-41.9"/>
  <ellipse cx="509.1" cy="337.6" rx="30.8" ry="17.8"/>
  <path d="M478.3 337.6v16.7c0 9.8 13.8 17.8 30.8 17.8s30.8-8 30.8-17.8v-16.7M436.6 252.4v100.5M436.6 252.4L364 210.5M436.6 252.4L364 294.3M436.6 352.9L364 394.7"/>
  <ellipse cx="364" cy="235.6" rx="30.8" ry="17.8"/>
  <path d="M394.8 235.6v16.7c0 9.8-13.8 17.8-30.8 17.8s-30.8-8-30.8-17.8v-16.7M364 210.5l-72.5-41.9"/>
  <ellipse cx="291.5" cy="193.8" rx="30.8" ry="17.8"/>
  <path d="M322.3 193.8v16.7c0 9.8-13.8 17.8-30.8 17.8s-30.8-8-30.8-17.8v-16.7M291.5 168.6L219 126.8"/>
  <ellipse cx="219" cy="151.9" rx="30.8" ry="17.8"/>
  <path d="M249.8 151.9v16.7c0 9.8-13.8 17.8-30.8 17.8s-30.8-8-30.8-17.8v-16.7M219 126.8l-72.5-41.9M146.5 84.9l-72.6 41.9"/>
  <ellipse cx="146.5" cy="110" rx="30.8" ry="17.8"/>
  <path d="M177.2 110v16.7c0 9.8-13.8 17.8-30.8 17.8s-30.8-8-30.8-17.8V110M291.5 336.1v100.5M364 294.3l-72.5 41.8M291.5 336.1L219 294.3M364 394.7l-72.5 41.9M291.5 436.6L219 394.7"/>
  <ellipse cx="291.5" cy="277.5" rx="30.8" ry="17.8"/>
  <path d="M322.3 277.5v16.7c0 9.8-13.8 17.8-30.8 17.8s-30.8-8-30.8-17.8v-16.7M219 294.3l-72.5-41.9M219 394.7l-72.5-41.8"/>
  <ellipse cx="219" cy="235.6" rx="30.8" ry="17.8"/>
  <path d="M249.8 235.6v16.7c0 9.8-13.8 17.8-30.8 17.8s-30.8-8-30.8-17.8v-16.7M146.5 252.4l-72.6-41.9M146.5 352.9L73.9 311"/>
  <ellipse cx="146.5" cy="193.8" rx="30.8" ry="17.8"/>
  <path d="M177.2 193.8v16.7c0 9.8-13.8 17.8-30.8 17.8s-30.8-8-30.8-17.8v-16.7M1.4 168.6v100.5M73.9 126.8L1.4 168.6M73.9 210.5L1.4 168.6M73.9 311L1.4 269.1"/>
  <ellipse cx="73.9" cy="151.9" rx="30.8" ry="17.8"/>
  <path d="M104.7 151.9v16.7c0 9.8-13.8 17.8-30.8 17.8s-30.8-8-30.8-17.8v-16.7"/>
</svg>
