<svg viewBox="0 0 873.1 623.5">
  <path d="M146.5 438.1v100.5M146.5 438.1l72.5-41.9M146.5 438.1L219 480M146.5 538.6l72.5 41.8"/>
  <ellipse cx="219" cy="421.3" rx="30.8" ry="17.8"/>
  <path d="M188.2 421.3V438c0 9.8 13.8 17.8 30.8 17.8s30.8-8 30.8-17.8v-16.7M291.5 521.8v100.5M219 480l72.5 41.8M291.5 521.8L364 480M219 580.4l72.5 41.9M291.5 622.3l72.5-41.9"/>
  <ellipse cx="291.5" cy="463.2" rx="30.8" ry="17.8"/>
  <path d="M260.7 463.2V480c0 9.8 13.8 17.8 30.8 17.8s30.8-8 30.8-17.8v-16.7M364 480l72.6-41.9M364 580.4l72.6-41.8M436.6 438.1l72.5-41.9M436.6 538.6l72.5-41.9M581.6 354.3v100.5M509.1 312.5l72.5 41.8M509.1 396.2l72.5-41.9M509.1 496.7l72.5-41.9M509.1 319.8c17 0 30.8 8 30.8 17.8s-13.8 17.8-30.8 17.8"/>
  <path d="M509.1 372.1c17 0 30.8-8 30.8-17.8v-16.7M509.1 295v100.5M509.1 295l-72.5-41.9M509.1 295l-72.5 41.9M509.1 395.5l-72.5 41.8"/>
  <ellipse cx="436.6" cy="278.2" rx="30.8" ry="17.8"/>
  <path d="M467.3 278.2V295c0 9.8-13.8 17.8-30.8 17.8s-30.8-8-30.8-17.8v-16.7M436.6 253.1L364 211.2"/>
  <ellipse cx="364" cy="236.4" rx="30.8" ry="17.8"/>
  <path d="M394.8 236.4v16.7c0 9.8-13.8 17.8-30.8 17.8s-30.8-8-30.8-17.8v-16.7M364 211.2l-72.5-41.8"/>
  <ellipse cx="291.5" cy="194.5" rx="30.8" ry="17.8"/>
  <path d="M322.3 194.5v16.7c0 9.8-13.8 17.8-30.8 17.8s-30.8-8-30.8-17.8v-16.7M291.5 169.4L219 127.5M219 127.5l-72.5 41.9"/>
  <ellipse cx="219" cy="152.6" rx="30.8" ry="17.8"/>
  <path d="M249.8 152.6v16.7c0 9.8-13.8 17.8-30.8 17.8s-30.8-8-30.8-17.8v-16.7M364 378.7v100.5M436.6 336.9L364 378.7M364 378.7l-72.5-41.8M436.6 437.3L364 479.2M364 479.2l-72.5-41.9"/>
  <ellipse cx="364" cy="320.1" rx="30.8" ry="17.8"/>
  <path d="M394.8 320.1v16.7c0 9.8-13.8 17.8-30.8 17.8s-30.8-8-30.8-17.8v-16.7M291.5 336.9L219 295M291.5 437.3L219 395.5"/>
  <ellipse cx="291.5" cy="278.2" rx="30.8" ry="17.8"/>
  <path d="M322.3 278.2V295c0 9.8-13.8 17.8-30.8 17.8s-30.8-8-30.8-17.8v-16.7M219 295l-72.5-41.9M219 395.5l-72.5-41.9"/>
  <ellipse cx="219" cy="236.4" rx="30.8" ry="17.8"/>
  <path d="M249.8 236.4v16.7c0 9.8-13.8 17.8-30.8 17.8s-30.8-8-30.8-17.8v-16.7M73.9 211.2v100.5M146.5 169.4l-72.6 41.8M146.5 253.1l-72.6-41.9M146.5 353.6l-72.6-41.9"/>
  <ellipse cx="146.5" cy="194.5" rx="30.8" ry="17.8"/>
  <path d="M177.2 194.5v16.7c0 9.8-13.8 17.8-30.8 17.8s-30.8-8-30.8-17.8v-16.7"/>
</svg>
