<svg viewBox="0 0 873.1 623.5">
  <path d="M146.5 438.1v100.5M146.5 438.1l72.5-41.9M146.5 438.1L219 480M146.5 538.6l72.5 41.8"/>
  <ellipse cx="219" cy="421.3" rx="30.8" ry="17.8"/>
  <path d="M188.2 421.3V438c0 9.8 13.8 17.8 30.8 17.8s30.8-8 30.8-17.8v-16.7M291.5 521.8v100.5M219 480l72.5 41.8M291.5 521.8L364 480M219 580.4l72.5 41.9M291.5 622.3l72.5-41.9"/>
  <ellipse cx="291.5" cy="463.2" rx="30.8" ry="17.8"/>
  <path d="M260.7 463.2V480c0 9.8 13.8 17.8 30.8 17.8s30.8-8 30.8-17.8v-16.7M364 580.4l72.6-41.8M436.6 538.6l72.5-41.9M581.6 354.3v100.5M509.1 496.7l72.5-41.9M581.6 337.6v100.5M581.6 337.6l-72.5-41.9M581.6 337.6l-72.5 41.9M581.6 438.1L509.1 480"/>
  <ellipse cx="509.1" cy="320.8" rx="30.8" ry="17.8"/>
  <path d="M539.8 320.8v16.7c0 9.8-13.8 17.8-30.8 17.8s-30.8-8-30.8-17.8v-16.7M509.1 295.7l-72.5-41.8"/>
  <ellipse cx="436.6" cy="279" rx="30.8" ry="17.8"/>
  <path d="M467.3 279v16.7c0 9.8-13.8 17.8-30.8 17.8s-30.8-8-30.8-17.8V279M436.6 253.9L364 212"/>
  <ellipse cx="364" cy="237.1" rx="30.8" ry="17.8"/>
  <path d="M394.8 237.1v16.7c0 9.8-13.8 17.8-30.8 17.8s-30.8-8-30.8-17.8v-16.7M364 212l-72.5-41.9M291.5 170.1L219 212"/>
  <ellipse cx="291.5" cy="195.2" rx="30.8" ry="17.8"/>
  <path d="M322.3 195.2V212c0 9.8-13.8 17.8-30.8 17.8s-30.8-8-30.8-17.8v-16.7M436.6 421.3v100.5M509.1 379.5l-72.5 41.8M436.6 421.3L364 379.5M509.1 480l-72.5 41.8M436.6 521.8L364 480"/>
  <ellipse cx="436.6" cy="362.7" rx="30.8" ry="17.8"/>
  <path d="M467.3 362.7v16.7c0 9.8-13.8 17.8-30.8 17.8s-30.8-8-30.8-17.8v-16.7M364 379.5l-72.5-41.9M364 480l-72.5-41.9"/>
  <ellipse cx="364" cy="320.8" rx="30.8" ry="17.8"/>
  <path d="M394.8 320.8v16.7c0 9.8-13.8 17.8-30.8 17.8s-30.8-8-30.8-17.8v-16.7M291.5 337.6L219 295.7M291.5 438.1L219 396.2"/>
  <ellipse cx="291.5" cy="279" rx="30.8" ry="17.8"/>
  <path d="M322.3 279v16.7c0 9.8-13.8 17.8-30.8 17.8s-30.8-8-30.8-17.8V279M146.5 253.9v100.4M219 212l-72.5 41.9M219 295.7l-72.5-41.8M219 396.2l-72.5-41.9"/>
  <ellipse cx="219" cy="237.1" rx="30.8" ry="17.8"/>
  <path d="M249.8 237.1v16.7c0 9.8-13.8 17.8-30.8 17.8s-30.8-8-30.8-17.8v-16.7"/>
</svg>
