<svg viewBox="0 0 873.1 623.5">
  <path d="M146.5 438.1v100.5M146.5 438.1l72.5-41.9M146.5 438.1L219 480M146.5 538.6l72.5 41.8"/>
  <ellipse cx="219" cy="421.3" rx="30.8" ry="17.8"/>
  <path d="M188.2 421.3V438c0 9.8 13.8 17.8 30.8 17.8s30.8-8 30.8-17.8v-16.7M219 396.2l72.5-41.9"/>
  <ellipse cx="291.5" cy="379.5" rx="30.8" ry="17.8"/>
  <path d="M260.7 379.5v16.7c0 9.8 13.8 17.8 30.8 17.8s30.8-8 30.8-17.8v-16.7M291.5 521.8v100.5M219 480l72.5 41.8M291.5 521.8L364 480M219 580.4l72.5 41.9M291.5 622.3l72.5-41.9"/>
  <ellipse cx="291.5" cy="463.2" rx="30.8" ry="17.8"/>
  <path d="M260.7 463.2V480c0 9.8 13.8 17.8 30.8 17.8s30.8-8 30.8-17.8v-16.7M364 480l72.6-41.9M364 580.4l72.6-41.8"/>
  <ellipse cx="364" cy="421.3" rx="30.8" ry="17.8"/>
  <path d="M333.3 421.3V438c0 9.8 13.8 17.8 30.8 17.8s30.8-8 30.8-17.8v-16.7M436.6 438.1l72.5-41.9M436.6 538.6l72.5-41.9"/>
  <ellipse cx="436.6" cy="379.5" rx="30.8" ry="17.8"/>
  <path d="M405.8 379.5v16.7c0 9.8 13.8 17.8 30.8 17.8s30.8-8 30.8-17.8v-16.7M581.6 354.3v100.5M509.1 312.5l72.5 41.8M509.1 396.2l72.5-41.9M509.1 496.7l72.5-41.9"/>
  <ellipse cx="509.1" cy="337.6" rx="30.8" ry="17.8"/>
  <path d="M478.3 337.6v16.7c0 9.8 13.8 17.8 30.8 17.8s30.8-8 30.8-17.8v-16.7M509.1 209.7v100.5M509.1 209.7l-72.5-41.8M509.1 209.7l-72.5 41.9M509.1 310.2l-72.5 41.9"/>
  <ellipse cx="436.6" cy="193" rx="30.8" ry="17.8"/>
  <path d="M467.3 193v16.7c0 9.8-13.8 17.8-30.8 17.8s-30.8-8-30.8-17.8V193M436.6 167.9L364 126"/>
  <ellipse cx="364" cy="151.1" rx="30.8" ry="17.8"/>
  <path d="M394.8 151.1v16.7c0 9.8-13.8 17.8-30.8 17.8s-30.8-8-30.8-17.8v-16.7M364 126l-72.5-41.9"/>
  <ellipse cx="291.5" cy="109.2" rx="30.8" ry="17.8"/>
  <path d="M322.3 109.2V126c0 9.8-13.8 17.8-30.8 17.8s-30.8-8-30.8-17.8v-16.7M291.5 84.1L219 42.2M219 42.2l-72.5 41.9"/>
  <ellipse cx="219" cy="67.4" rx="30.8" ry="17.8"/>
  <path d="M249.8 67.4v16.7c0 9.8-13.8 17.8-30.8 17.8s-30.8-8-30.8-17.8V67.4M364 293.5V394M436.6 251.6L364 293.5M364 293.5l-72.5-41.9M436.6 352.1L364 394M364 394l-72.5-41.9"/>
  <ellipse cx="364" cy="234.9" rx="30.8" ry="17.8"/>
  <path d="M394.8 234.9v16.7c0 9.8-13.8 17.8-30.8 17.8s-30.8-8-30.8-17.8v-16.7M291.5 251.6L219 209.7M291.5 352.1L219 310.2"/>
  <ellipse cx="291.5" cy="193" rx="30.8" ry="17.8"/>
  <path d="M322.3 193v16.7c0 9.8-13.8 17.8-30.8 17.8s-30.8-8-30.8-17.8V193M219 209.7l-72.5-41.8M219 310.2l-72.5-41.9"/>
  <ellipse cx="219" cy="151.1" rx="30.8" ry="17.8"/>
  <path d="M249.8 151.1v16.7c0 9.8-13.8 17.8-30.8 17.8s-30.8-8-30.8-17.8v-16.7M73.9 126v100.5M146.5 84.1L73.9 126M146.5 167.9L73.9 126M146.5 268.3l-72.6-41.8"/>
  <ellipse cx="146.5" cy="109.2" rx="30.8" ry="17.8"/>
  <path d="M177.2 109.2V126c0 9.8-13.8 17.8-30.8 17.8s-30.8-8-30.8-17.8v-16.7"/>
</svg>
