<svg viewBox="0 0 873.1 623.5">
  <path d="M146.5 438.1v100.5M146.5 438.1l72.5-41.9M146.5 438.1L219 480M146.5 538.6l72.5 41.8"/>
  <ellipse cx="219" cy="421.3" rx="30.8" ry="17.8"/>
  <path d="M188.2 421.3V438c0 9.8 13.8 17.8 30.8 17.8s30.8-8 30.8-17.8v-16.7M219 396.2l72.5-41.9"/>
  <ellipse cx="291.5" cy="379.5" rx="30.8" ry="17.8"/>
  <path d="M260.7 379.5v16.7c0 9.8 13.8 17.8 30.8 17.8s30.8-8 30.8-17.8v-16.7M291.5 521.8v100.5M219 480l72.5 41.8M291.5 521.8L364 480M219 580.4l72.5 41.9M291.5 622.3l72.5-41.9"/>
  <ellipse cx="291.5" cy="463.2" rx="30.8" ry="17.8"/>
  <path d="M260.7 463.2V480c0 9.8 13.8 17.8 30.8 17.8s30.8-8 30.8-17.8v-16.7M364 480l72.6-41.9M364 580.4l72.6-41.8"/>
  <ellipse cx="364" cy="421.3" rx="30.8" ry="17.8"/>
  <path d="M333.3 421.3V438c0 9.8 13.8 17.8 30.8 17.8s30.8-8 30.8-17.8v-16.7M436.6 438.1l72.5-41.9M436.6 538.6l72.5-41.9M581.6 354.3v100.5M509.1 396.2l72.5-41.9M509.1 496.7l72.5-41.9M581.6 254.3v100.5M581.6 254.3l-72.5-41.8M581.6 254.3l-72.5 41.9M581.6 354.8l-72.5 41.9"/>
  <ellipse cx="509.1" cy="237.6" rx="30.8" ry="17.8"/>
  <path d="M539.8 237.6v16.7c0 9.8-13.8 17.8-30.8 17.8s-30.8-8-30.8-17.8v-16.7M509.1 212.5l-72.5-41.9"/>
  <ellipse cx="436.6" cy="195.7" rx="30.8" ry="17.8"/>
  <path d="M467.3 195.7v16.7c0 9.8-13.8 17.8-30.8 17.8s-30.8-8-30.8-17.8v-16.7M436.6 170.6L364 128.7"/>
  <ellipse cx="364" cy="153.9" rx="30.8" ry="17.8"/>
  <path d="M394.8 153.9v16.7c0 9.8-13.8 17.8-30.8 17.8s-30.8-8-30.8-17.8v-16.7M364 128.7l-72.5-41.8M291.5 86.9L219 128.7"/>
  <ellipse cx="291.5" cy="112" rx="30.8" ry="17.8"/>
  <path d="M322.3 112v16.7c0 9.8-13.8 17.8-30.8 17.8s-30.8-8-30.8-17.8V112M436.6 338.1v100.5M509.1 296.2l-72.5 41.9M436.6 338.1L364 296.2M509.1 396.7l-72.5 41.9M436.6 438.6L364 396.7"/>
  <ellipse cx="436.6" cy="279.5" rx="30.8" ry="17.8"/>
  <path d="M467.3 279.5v16.7c0 9.8-13.8 17.8-30.8 17.8s-30.8-8-30.8-17.8v-16.7M364 296.2l-72.5-41.9M364 396.7l-72.5-41.9"/>
  <ellipse cx="364" cy="237.6" rx="30.8" ry="17.8"/>
  <path d="M394.8 237.6v16.7c0 9.8-13.8 17.8-30.8 17.8s-30.8-8-30.8-17.8v-16.7M291.5 254.3L219 212.5M291.5 354.8L219 313"/>
  <ellipse cx="291.5" cy="195.7" rx="30.8" ry="17.8"/>
  <path d="M322.3 195.7v16.7c0 9.8-13.8 17.8-30.8 17.8s-30.8-8-30.8-17.8v-16.7M146.5 170.6v100.5M219 128.7l-72.5 41.9M219 212.5l-72.5-41.9M219 313l-72.5-41.9"/>
  <ellipse cx="219" cy="153.9" rx="30.8" ry="17.8"/>
  <path d="M249.8 153.9v16.7c0 9.8-13.8 17.8-30.8 17.8s-30.8-8-30.8-17.8v-16.7"/>
</svg>
