
<svg viewBox="0 0 728.1 622.9">
	<g id="Brick_94_">
		<g id="Inline_94_">
			<line fill="none" stroke="#1F1F85" x1="219" y1="211" x2="364" y2="294.7"/>

				<line fill="none" stroke="#1F1F85" x1="364" y1="294.7" x2="364" y2="395.2"/>

				<line fill="none" stroke="#1F1F85" x1="654.1" y1="127.2" x2="364" y2="294.7"/>
		</g>
		<g id="Outline_94_">
			<polygon fill="none" stroke="#1D4B9C" points="364,395.2 654.1,227.7
				654.1,127.2 509.1,43.5 219,211 219,311.5 			"/>
		</g>
		<g id="Studs_94_">

				<ellipse fill="none" stroke="#204095" cx="291.5" cy="194.2" rx="30.8" ry="17.8"/>
			<path fill="none" stroke="#204095" d="M260.7,194.2V211
				c0,9.8,13.8,17.8,30.8,17.8s30.8-8,30.8-17.8v-16.7"/>

				<ellipse fill="none" stroke="#204095" cx="364" cy="152.4" rx="30.8" ry="17.8"/>
			<path fill="none" stroke="#204095" d="M333.3,152.4v16.7
				c0,9.8,13.8,17.8,30.8,17.8c17,0,30.8-8,30.8-17.8v-16.7"/>

				<ellipse fill="none" stroke="#204095" cx="436.6" cy="110.5" rx="30.8" ry="17.8"/>
			<path fill="none" stroke="#204095" d="M405.8,110.5v16.7
				c0,9.8,13.8,17.8,30.8,17.8c17,0,30.8-8,30.8-17.8v-16.7"/>

				<ellipse fill="none" stroke="#204095" cx="509.1" cy="68.6" rx="30.8" ry="17.8"/>
			<path fill="none" stroke="#204095" d="M478.3,68.6v16.7
				c0,9.8,13.8,17.8,30.8,17.8c17,0,30.8-8,30.8-17.8V68.6"/>

				<ellipse fill="none" stroke="#204095" cx="364" cy="236.1" rx="30.8" ry="17.8"/>
			<path fill="none" stroke="#204095" d="M333.3,236.1v16.7
				c0,9.8,13.8,17.8,30.8,17.8c17,0,30.8-8,30.8-17.8v-16.7"/>

				<ellipse fill="none" stroke="#204095" cx="436.6" cy="194.2" rx="30.8" ry="17.8"/>
			<path fill="none" stroke="#204095" d="M405.8,194.2V211
				c0,9.8,13.8,17.8,30.8,17.8c17,0,30.8-8,30.8-17.8v-16.7"/>

				<ellipse fill="none" stroke="#204095" cx="509.1" cy="152.4" rx="30.8" ry="17.8"/>
			<path fill="none" stroke="#204095" d="M478.3,152.4v16.7
				c0,9.8,13.8,17.8,30.8,17.8c17,0,30.8-8,30.8-17.8v-16.7"/>

				<ellipse fill="none" stroke="#204095" cx="581.6" cy="110.5" rx="30.8" ry="17.8"/>
			<path fill="none" stroke="#204095" d="M550.8,110.5v16.7
				c0,9.8,13.8,17.8,30.8,17.8c17,0,30.8-8,30.8-17.8v-16.7"/>
		</g>
	</g>
	<g id="Brick_70_">
		<g id="Inline_70_">
			<line fill="none" stroke="#B90622" x1="73.9" y1="395.2" x2="219" y2="479"/>
			<line fill="none" stroke="#B90622" x1="219" y1="479" x2="219" y2="579.5"/>
			<line fill="none" stroke="#B90622" x1="364" y1="395.2" x2="219" y2="479"/>
		</g>
		<g id="Outline_70_">
			<polyline fill="none" stroke="#E4165A" points="219,311.5 73.9,395.2
				73.9,495.7 219,579.5 509.1,412 509.1,311.5 			"/>
		</g>
		<g id="Studs_70_">

				<ellipse fill="none" stroke="#E3174C" cx="146.5" cy="378.5" rx="30.8" ry="17.8"/>
			<path fill="none" stroke="#E3174C" d="M115.7,378.5v16.7
				c0,9.8,13.8,17.8,30.8,17.8s30.8-8,30.8-17.8v-16.7"/>

				<ellipse fill="none" stroke="#E3174C" cx="219" cy="336.6" rx="30.8" ry="17.8"/>
			<path fill="none" stroke="#E3174C" d="M188.2,336.6v16.7
				c0,9.8,13.8,17.8,30.8,17.8s30.8-8,30.8-17.8v-16.7"/>

				<ellipse fill="none" stroke="#E3174C" cx="219" cy="420.3" rx="30.8" ry="17.8"/>
			<path fill="none" stroke="#E3174C" d="M188.2,420.3v16.7
				c0,9.8,13.8,17.8,30.8,17.8s30.8-8,30.8-17.8v-16.7"/>

				<ellipse fill="none" stroke="#E3174C" cx="291.5" cy="378.5" rx="30.8" ry="17.8"/>
			<path fill="none" stroke="#E3174C" d="M260.7,378.5v16.7
				c0,9.8,13.8,17.8,30.8,17.8s30.8-8,30.8-17.8v-16.7"/>
		</g>
	</g>
</svg>
