
<svg viewBox="0 0 728.1 622.9">
	<g id="Brick_85_">
		<g id="Inline_85_">
			<line fill="none" stroke="#1F1F85" x1="219" y1="252.3" x2="364" y2="336"/>
			<line fill="none" stroke="#1F1F85" x1="364" y1="336" x2="364" y2="436.5"/>

				<line fill="none" stroke="#1F1F85" x1="654.1" y1="168.5" x2="364" y2="336"/>
		</g>
		<g id="Outline_85_">
			<polygon fill="none" stroke="#1D4B9C" points="364,436.5 654.1,269
				654.1,168.5 509.1,84.8 219,252.3 219,352.8 			"/>
		</g>
		<g id="Studs_85_">

				<ellipse fill="none" stroke="#204095" cx="291.5" cy="235.5" rx="30.8" ry="17.8"/>
			<path fill="none" stroke="#204095" d="M260.7,235.5v16.7
				c0,9.8,13.8,17.8,30.8,17.8c17,0,30.8-8,30.8-17.8v-16.7"/>

				<ellipse fill="none" stroke="#204095" cx="364" cy="193.6" rx="30.8" ry="17.8"/>
			<path fill="none" stroke="#204095" d="M333.3,193.6v16.7
				c0,9.8,13.8,17.8,30.8,17.8c17,0,30.8-8,30.8-17.8v-16.7"/>

				<ellipse fill="none" stroke="#204095" cx="436.6" cy="151.8" rx="30.8" ry="17.8"/>
			<path fill="none" stroke="#204095" d="M405.8,151.8v16.7
				c0,9.8,13.8,17.8,30.8,17.8s30.8-8,30.8-17.8v-16.7"/>

				<ellipse fill="none" stroke="#204095" cx="509.1" cy="109.9" rx="30.8" ry="17.8"/>
			<path fill="none" stroke="#204095" d="M478.3,109.9v16.7
				c0,9.8,13.8,17.8,30.8,17.8c17,0,30.8-8,30.8-17.8v-16.7"/>

				<ellipse fill="none" stroke="#204095" cx="364" cy="277.4" rx="30.8" ry="17.8"/>
			<path fill="none" stroke="#204095" d="M333.3,277.4v16.7
				c0,9.8,13.8,17.8,30.8,17.8c17,0,30.8-8,30.8-17.8v-16.7"/>

				<ellipse fill="none" stroke="#204095" cx="436.6" cy="235.5" rx="30.8" ry="17.8"/>
			<path fill="none" stroke="#204095" d="M405.8,235.5v16.7
				c0,9.8,13.8,17.8,30.8,17.8c17,0,30.8-8,30.8-17.8v-16.7"/>

				<ellipse fill="none" stroke="#204095" cx="509.1" cy="193.6" rx="30.8" ry="17.8"/>
			<path fill="none" stroke="#204095" d="M478.3,193.6v16.7
				c0,9.8,13.8,17.8,30.8,17.8c17,0,30.8-8,30.8-17.8v-16.7"/>

				<ellipse fill="none" stroke="#204095" cx="581.6" cy="151.8" rx="30.8" ry="17.8"/>
			<path fill="none" stroke="#204095" d="M550.8,151.8v16.7
				c0,9.8,13.8,17.8,30.8,17.8s30.8-8,30.8-17.8v-16.7"/>
		</g>
	</g>
	<g id="Brick_61_">
		<g id="Inline_61_">

				<line fill="none" stroke="#B90622" x1="73.9" y1="353.9" x2="219" y2="437.7"/>

				<line fill="none" stroke="#B90622" x1="219" y1="437.7" x2="219" y2="538.2"/>

				<line fill="none" stroke="#B90622" x1="292.5" y1="395.2" x2="219" y2="437.7"/>
		</g>
		<g id="Outline_61_">
			<polyline fill="none" stroke="#E4165A" points="219,270.2 73.9,353.9
				73.9,454.4 219,538.2 509.1,370.7 509.1,352.8 			"/>
		</g>
		<g id="Studs_61_">

				<ellipse fill="none" stroke="#E3174C" cx="146.5" cy="337.2" rx="30.8" ry="17.8"/>
			<path fill="none" stroke="#E3174C" d="M115.7,337.2v16.7
				c0,9.8,13.8,17.8,30.8,17.8s30.8-8,30.8-17.8v-16.7"/>
			<path fill="none" stroke="#E3174C" d="M219,313.1c-17,0-30.8-8-30.8-17.8
				c0-9.8,13.8-17.8,30.8-17.8"/>
			<path fill="none" stroke="#E3174C" d="M188.2,295.3v16.7
				c0,9.8,13.8,17.8,30.8,17.8"/>

				<ellipse fill="none" stroke="#E3174C" cx="219" cy="379.1" rx="30.8" ry="17.8"/>
			<path fill="none" stroke="#E3174C" d="M188.2,379.1v16.7
				c0,9.8,13.8,17.8,30.8,17.8s30.8-8,30.8-17.8v-16.7"/>
		</g>
	</g>
</svg>
