
<svg viewBox="0 0 728.1 622.9">
	<g id="Brick_83_">
		<g id="Inline_83_">

				<line fill="none" stroke="#1F1F85" x1="690.4" y1="231.4" x2="545.3" y2="315.2"/>

				<line fill="none" stroke="#1F1F85" x1="545.3" y1="315.2" x2="545.3" y2="415.6"/>

				<line fill="none" stroke="#1F1F85" x1="255.2" y1="147.7" x2="545.3" y2="315.2"/>
		</g>
		<g id="Outline_83_">
			<polygon fill="none" stroke="#1D4B9C" points="545.3,415.6 255.2,248.2
				255.2,147.7 400.3,63.9 690.4,231.4 690.4,331.9 			"/>
		</g>
		<g id="Studs_83_">

				<ellipse fill="none" stroke="#204095" cx="617.9" cy="214.7" rx="30.8" ry="17.8"/>
			<path fill="none" stroke="#204095" d="M648.6,214.7v16.7
				c0,9.8-13.8,17.8-30.8,17.8s-30.8-8-30.8-17.8v-16.7"/>

				<ellipse fill="none" stroke="#204095" cx="545.3" cy="172.8" rx="30.8" ry="17.8"/>
			<path fill="none" stroke="#204095" d="M576.1,172.8v16.7
				c0,9.8-13.8,17.8-30.8,17.8c-17,0-30.8-8-30.8-17.8v-16.7"/>

				<ellipse fill="none" stroke="#204095" cx="472.8" cy="130.9" rx="30.8" ry="17.8"/>
			<path fill="none" stroke="#204095" d="M503.6,130.9v16.7
				c0,9.8-13.8,17.8-30.8,17.8c-17,0-30.8-8-30.8-17.8v-16.7"/>

				<ellipse fill="none" stroke="#204095" cx="400.3" cy="89" rx="30.8" ry="17.8"/>
			<path fill="none" stroke="#204095" d="M431.1,89v16.7
				c0,9.8-13.8,17.8-30.8,17.8c-17,0-30.8-8-30.8-17.8V89"/>

				<ellipse fill="none" stroke="#204095" cx="545.3" cy="256.5" rx="30.8" ry="17.8"/>
			<path fill="none" stroke="#204095" d="M576.1,256.5v16.7
				c0,9.8-13.8,17.8-30.8,17.8c-17,0-30.8-8-30.8-17.8v-16.7"/>

				<ellipse fill="none" stroke="#204095" cx="472.8" cy="214.7" rx="30.8" ry="17.8"/>
			<path fill="none" stroke="#204095" d="M503.6,214.7v16.7
				c0,9.8-13.8,17.8-30.8,17.8s-30.8-8-30.8-17.8v-16.7"/>

				<ellipse fill="none" stroke="#204095" cx="400.3" cy="172.8" rx="30.8" ry="17.8"/>
			<path fill="none" stroke="#204095" d="M431.1,172.8v16.7
				c0,9.8-13.8,17.8-30.8,17.8c-17,0-30.8-8-30.8-17.8v-16.7"/>

				<ellipse fill="none" stroke="#204095" cx="327.8" cy="130.9" rx="30.8" ry="17.8"/>
			<path fill="none" stroke="#204095" d="M358.5,130.9v16.7
				c0,9.8-13.8,17.8-30.8,17.8s-30.8-8-30.8-17.8v-16.7"/>
		</g>
	</g>
	<g id="Brick_59_">
		<g id="Inline_59_">

				<line fill="none" stroke="#B90622" x1="37.7" y1="374.8" x2="182.7" y2="458.5"/>

				<line fill="none" stroke="#B90622" x1="182.7" y1="458.5" x2="182.7" y2="559"/>

				<line fill="none" stroke="#B90622" x1="401.2" y1="332.4" x2="182.7" y2="458.5"/>
		</g>
		<g id="Outline_59_">
			<polyline fill="none" stroke="#E4165A" points="255.2,248.2 37.7,374.8
				37.7,475.3 182.7,559 472.8,391.5 472.8,373.8 			"/>
		</g>
		<g id="Studs_59_">

				<ellipse fill="none" stroke="#E3174C" cx="110.2" cy="358" rx="30.8" ry="17.8"/>
			<path fill="none" stroke="#E3174C" d="M79.4,358v16.7
				c0,9.8,13.8,17.8,30.8,17.8s30.8-8,30.8-17.8V358"/>

				<ellipse fill="none" stroke="#E3174C" cx="182.7" cy="316.2" rx="30.8" ry="17.8"/>
			<path fill="none" stroke="#E3174C" d="M152,316.2v16.7
				c0,9.8,13.8,17.8,30.8,17.8s30.8-8,30.8-17.8v-16.7"/>

				<ellipse fill="none" stroke="#E3174C" cx="255.2" cy="274.3" rx="30.8" ry="17.8"/>
			<path fill="none" stroke="#E3174C" d="M224.5,274.3V291
				c0,9.8,13.8,17.8,30.8,17.8s30.8-8,30.8-17.8v-16.7"/>

				<ellipse fill="none" stroke="#E3174C" cx="182.7" cy="399.9" rx="30.8" ry="17.8"/>
			<path fill="none" stroke="#E3174C" d="M152,399.9v16.7
				c0,9.8,13.8,17.8,30.8,17.8s30.8-8,30.8-17.8v-16.7"/>

				<ellipse fill="none" stroke="#E3174C" cx="255.2" cy="358" rx="30.8" ry="17.8"/>
			<path fill="none" stroke="#E3174C" d="M224.5,358v16.7
				c0,9.8,13.8,17.8,30.8,17.8s30.8-8,30.8-17.8V358"/>

				<ellipse fill="none" stroke="#E3174C" cx="327.8" cy="316.2" rx="30.8" ry="17.8"/>
			<path fill="none" stroke="#E3174C" d="M297,316.2v16.7
				c0,9.8,13.8,17.8,30.8,17.8c17,0,30.8-8,30.8-17.8v-16.7"/>
		</g>
	</g>
</svg>
