
<svg viewBox="0 0 728.1 622.9">
	<g id="Brick_82_">
		<g id="Inline_82_">

				<line fill="none" stroke="#1F1F85" x1="654.1" y1="211" x2="509.1" y2="294.7"/>

				<line fill="none" stroke="#1F1F85" x1="509.1" y1="294.7" x2="509.1" y2="395.2"/>

				<line fill="none" stroke="#1F1F85" x1="219" y1="127.2" x2="509.1" y2="294.7"/>
		</g>
		<g id="Outline_82_">
			<polygon fill="none" stroke="#1D4B9C" points="509.1,395.2 219,227.7
				219,127.2 364,43.5 654.1,211 654.1,311.5 			"/>
		</g>
		<g id="Studs_82_">

				<ellipse fill="none" stroke="#204095" cx="581.6" cy="194.2" rx="30.8" ry="17.8"/>
			<path fill="none" stroke="#204095" d="M612.4,194.2V211
				c0,9.8-13.8,17.8-30.8,17.8c-17,0-30.8-8-30.8-17.8v-16.7"/>

				<ellipse fill="none" stroke="#204095" cx="509.1" cy="152.4" rx="30.8" ry="17.8"/>
			<path fill="none" stroke="#204095" d="M539.8,152.4v16.7
				c0,9.8-13.8,17.8-30.8,17.8c-17,0-30.8-8-30.8-17.8v-16.7"/>

				<ellipse fill="none" stroke="#204095" cx="436.6" cy="110.5" rx="30.8" ry="17.8"/>
			<path fill="none" stroke="#204095" d="M467.3,110.5v16.7
				c0,9.8-13.8,17.8-30.8,17.8c-17,0-30.8-8-30.8-17.8v-16.7"/>

				<ellipse fill="none" stroke="#204095" cx="364" cy="68.6" rx="30.8" ry="17.8"/>
			<path fill="none" stroke="#204095" d="M394.8,68.6v16.7
				c0,9.8-13.8,17.8-30.8,17.8c-17,0-30.8-8-30.8-17.8V68.6"/>

				<ellipse fill="none" stroke="#204095" cx="509.1" cy="236.1" rx="30.8" ry="17.8"/>
			<path fill="none" stroke="#204095" d="M539.8,236.1v16.7
				c0,9.8-13.8,17.8-30.8,17.8c-17,0-30.8-8-30.8-17.8v-16.7"/>

				<ellipse fill="none" stroke="#204095" cx="436.6" cy="194.2" rx="30.8" ry="17.8"/>
			<path fill="none" stroke="#204095" d="M467.3,194.2V211
				c0,9.8-13.8,17.8-30.8,17.8c-17,0-30.8-8-30.8-17.8v-16.7"/>

				<ellipse fill="none" stroke="#204095" cx="364" cy="152.4" rx="30.8" ry="17.8"/>
			<path fill="none" stroke="#204095" d="M394.8,152.4v16.7
				c0,9.8-13.8,17.8-30.8,17.8c-17,0-30.8-8-30.8-17.8v-16.7"/>

				<ellipse fill="none" stroke="#204095" cx="291.5" cy="110.5" rx="30.8" ry="17.8"/>
			<path fill="none" stroke="#204095" d="M322.3,110.5v16.7
				c0,9.8-13.8,17.8-30.8,17.8s-30.8-8-30.8-17.8v-16.7"/>
		</g>
	</g>
	<g id="Brick_58_">
		<g id="Inline_58_">
			<line fill="none" stroke="#B90622" x1="73.9" y1="395.2" x2="219" y2="479"/>
			<line fill="none" stroke="#B90622" x1="219" y1="479" x2="219" y2="579.4"/>

				<line fill="none" stroke="#B90622" x1="436.6" y1="353.3" x2="219" y2="479"/>
		</g>
		<g id="Outline_58_">
			<polyline fill="none" stroke="#E4165A" points="291.5,269.6 73.9,395.2
				73.9,495.7 219,579.4 509.1,412 509.1,395.2 			"/>
		</g>
		<g id="Studs_58_">

				<ellipse fill="none" stroke="#E3174C" cx="146.5" cy="378.5" rx="30.8" ry="17.8"/>
			<path fill="none" stroke="#E3174C" d="M115.7,378.5v16.7
				c0,9.8,13.8,17.8,30.8,17.8s30.8-8,30.8-17.8v-16.7"/>

				<ellipse fill="none" stroke="#E3174C" cx="219" cy="336.6" rx="30.8" ry="17.8"/>
			<path fill="none" stroke="#E3174C" d="M188.2,336.6v16.7
				c0,9.8,13.8,17.8,30.8,17.8s30.8-8,30.8-17.8v-16.7"/>

				<ellipse fill="none" stroke="#E3174C" cx="291.5" cy="294.7" rx="30.8" ry="17.8"/>
			<path fill="none" stroke="#E3174C" d="M260.7,294.7v16.7
				c0,9.8,13.8,17.8,30.8,17.8s30.8-8,30.8-17.8v-16.7"/>

				<ellipse fill="none" stroke="#E3174C" cx="219" cy="420.3" rx="30.8" ry="17.8"/>
			<path fill="none" stroke="#E3174C" d="M188.2,420.3v16.7
				c0,9.8,13.8,17.8,30.8,17.8s30.8-8,30.8-17.8v-16.7"/>

				<ellipse fill="none" stroke="#E3174C" cx="291.5" cy="378.5" rx="30.8" ry="17.8"/>
			<path fill="none" stroke="#E3174C" d="M260.7,378.5v16.7
				c0,9.8,13.8,17.8,30.8,17.8s30.8-8,30.8-17.8v-16.7"/>

				<ellipse fill="none" stroke="#E3174C" cx="364" cy="336.6" rx="30.8" ry="17.8"/>
			<path fill="none" stroke="#E3174C" d="M333.3,336.6v16.7
				c0,9.8,13.8,17.8,30.8,17.8c17,0,30.8-8,30.8-17.8v-16.7"/>
		</g>
	</g>
</svg>
