
<svg viewBox="0 0 728.1 622.9">
	<g id="Brick_79_">
		<g id="Inline_79_">

				<line fill="none" stroke="#1F1F85" x1="690.4" y1="274" x2="545.3" y2="357.8"/>

				<line fill="none" stroke="#1F1F85" x1="545.3" y1="357.8" x2="545.3" y2="458.3"/>

				<line fill="none" stroke="#1F1F85" x1="255.2" y1="190.3" x2="545.3" y2="357.8"/>
		</g>
		<g id="Outline_79_">
			<polygon fill="none" stroke="#1D4B9C" points="545.3,458.3 255.2,290.8
				255.2,190.3 400.3,106.6 690.4,274 690.4,374.5 			"/>
		</g>
		<g id="Studs_79_">

				<ellipse fill="none" stroke="#204095" cx="617.9" cy="257.3" rx="30.8" ry="17.8"/>
			<path fill="none" stroke="#204095" d="M648.6,257.3V274
				c0,9.8-13.8,17.8-30.8,17.8s-30.8-8-30.8-17.8v-16.7"/>

				<ellipse fill="none" stroke="#204095" cx="545.3" cy="215.4" rx="30.8" ry="17.8"/>
			<path fill="none" stroke="#204095" d="M576.1,215.4v16.7
				c0,9.8-13.8,17.8-30.8,17.8c-17,0-30.8-8-30.8-17.8v-16.7"/>

				<ellipse fill="none" stroke="#204095" cx="472.8" cy="173.6" rx="30.8" ry="17.8"/>
			<path fill="none" stroke="#204095" d="M503.6,173.6v16.7
				c0,9.8-13.8,17.8-30.8,17.8c-17,0-30.8-8-30.8-17.8v-16.7"/>

				<ellipse fill="none" stroke="#204095" cx="400.3" cy="131.7" rx="30.8" ry="17.8"/>
			<path fill="none" stroke="#204095" d="M431.1,131.7v16.7
				c0,9.8-13.8,17.8-30.8,17.8c-17,0-30.8-8-30.8-17.8v-16.7"/>

				<ellipse fill="none" stroke="#204095" cx="545.3" cy="299.2" rx="30.8" ry="17.8"/>
			<path fill="none" stroke="#204095" d="M576.1,299.2v16.7
				c0,9.8-13.8,17.8-30.8,17.8c-17,0-30.8-8-30.8-17.8v-16.7"/>

				<ellipse fill="none" stroke="#204095" cx="472.8" cy="257.3" rx="30.8" ry="17.8"/>
			<path fill="none" stroke="#204095" d="M503.6,257.3V274
				c0,9.8-13.8,17.8-30.8,17.8c-17,0-30.8-8-30.8-17.8v-16.7"/>

				<ellipse fill="none" stroke="#204095" cx="400.3" cy="215.4" rx="30.8" ry="17.8"/>
			<path fill="none" stroke="#204095" d="M431.1,215.4v16.7
				c0,9.8-13.8,17.8-30.8,17.8c-17,0-30.8-8-30.8-17.8v-16.7"/>

				<ellipse fill="none" stroke="#204095" cx="327.8" cy="173.6" rx="30.8" ry="17.8"/>
			<path fill="none" stroke="#204095" d="M358.5,173.6v16.7
				c0,9.8-13.8,17.8-30.8,17.8s-30.8-8-30.8-17.8v-16.7"/>
		</g>
	</g>
	<g id="Brick_55_">
		<g id="Inline_55_">

				<line fill="none" stroke="#B90622" x1="37.7" y1="332.2" x2="182.7" y2="415.9"/>

				<line fill="none" stroke="#B90622" x1="182.7" y1="415.9" x2="182.7" y2="516.4"/>

				<line fill="none" stroke="#B90622" x1="327.3" y1="332.4" x2="182.7" y2="415.9"/>
		</g>
		<g id="Outline_55_">
			<polyline fill="none" stroke="#E4165A" points="255.2,206.5 37.7,332.2
				37.7,432.6 182.7,516.4 414.4,382.7 			"/>
		</g>
		<g id="Studs_55_">

				<ellipse fill="none" stroke="#E3174C" cx="110.2" cy="315.4" rx="30.8" ry="17.8"/>
			<path fill="none" stroke="#E3174C" d="M79.4,315.4v16.7
				c0,9.8,13.8,17.8,30.8,17.8s30.8-8,30.8-17.8v-16.7"/>

				<ellipse fill="none" stroke="#E3174C" cx="182.7" cy="273.5" rx="30.8" ry="17.8"/>
			<path fill="none" stroke="#E3174C" d="M152,273.5v16.7
				c0,9.8,13.8,17.8,30.8,17.8s30.8-8,30.8-17.8v-16.7"/>
			<path fill="none" stroke="#E3174C" d="M255.2,249.4c-17,0-30.8-8-30.8-17.8
				c0-9.8,13.8-17.8,30.8-17.8"/>
			<path fill="none" stroke="#E3174C" d="M224.5,231.7v16.7
				c0,9.8,13.8,17.8,30.8,17.8"/>

				<ellipse fill="none" stroke="#E3174C" cx="182.7" cy="357.3" rx="30.8" ry="17.8"/>
			<path fill="none" stroke="#E3174C" d="M152,357.3V374
				c0,9.8,13.8,17.8,30.8,17.8s30.8-8,30.8-17.8v-16.7"/>

				<ellipse fill="none" stroke="#E3174C" cx="255.2" cy="315.4" rx="30.8" ry="17.8"/>
			<path fill="none" stroke="#E3174C" d="M224.5,315.4v16.7
				c0,9.8,13.8,17.8,30.8,17.8s30.8-8,30.8-17.8v-16.7"/>
		</g>
	</g>
</svg>
