
<svg viewBox="0 0 728.1 622.9">
	<g id="Brick_78_">
		<g id="Inline_78_">

				<line fill="none" stroke="#1F1F85" x1="654.1" y1="252.9" x2="509.1" y2="336.6"/>

				<line fill="none" stroke="#1F1F85" x1="509.1" y1="336.6" x2="509.1" y2="437.1"/>

				<line fill="none" stroke="#1F1F85" x1="219" y1="169.1" x2="509.1" y2="336.6"/>
		</g>
		<g id="Outline_78_">
			<polygon fill="none" stroke="#1D4B9C" points="509.1,437.1 219,269.6
				219,169.1 364,85.4 654.1,252.9 654.1,353.3 			"/>
		</g>
		<g id="Studs_78_">

				<ellipse fill="none" stroke="#204095" cx="581.6" cy="236.1" rx="30.8" ry="17.8"/>
			<path fill="none" stroke="#204095" d="M612.4,236.1v16.7
				c0,9.8-13.8,17.8-30.8,17.8c-17,0-30.8-8-30.8-17.8v-16.7"/>

				<ellipse fill="none" stroke="#204095" cx="509.1" cy="194.2" rx="30.8" ry="17.8"/>
			<path fill="none" stroke="#204095" d="M539.8,194.2V211
				c0,9.8-13.8,17.8-30.8,17.8c-17,0-30.8-8-30.8-17.8v-16.7"/>

				<ellipse fill="none" stroke="#204095" cx="436.6" cy="152.4" rx="30.8" ry="17.8"/>
			<path fill="none" stroke="#204095" d="M467.3,152.4v16.7
				c0,9.8-13.8,17.8-30.8,17.8c-17,0-30.8-8-30.8-17.8v-16.7"/>

				<ellipse fill="none" stroke="#204095" cx="364" cy="110.5" rx="30.8" ry="17.8"/>
			<path fill="none" stroke="#204095" d="M394.8,110.5v16.7
				c0,9.8-13.8,17.8-30.8,17.8c-17,0-30.8-8-30.8-17.8v-16.7"/>

				<ellipse fill="none" stroke="#204095" cx="509.1" cy="278" rx="30.8" ry="17.8"/>
			<path fill="none" stroke="#204095" d="M539.8,278v16.7
				c0,9.8-13.8,17.8-30.8,17.8c-17,0-30.8-8-30.8-17.8V278"/>

				<ellipse fill="none" stroke="#204095" cx="436.6" cy="236.1" rx="30.8" ry="17.8"/>
			<path fill="none" stroke="#204095" d="M467.3,236.1v16.7
				c0,9.8-13.8,17.8-30.8,17.8c-17,0-30.8-8-30.8-17.8v-16.7"/>

				<ellipse fill="none" stroke="#204095" cx="364" cy="194.2" rx="30.8" ry="17.8"/>
			<path fill="none" stroke="#204095" d="M394.8,194.2V211
				c0,9.8-13.8,17.8-30.8,17.8c-17,0-30.8-8-30.8-17.8v-16.7"/>

				<ellipse fill="none" stroke="#204095" cx="291.5" cy="152.4" rx="30.8" ry="17.8"/>
			<path fill="none" stroke="#204095" d="M322.3,152.4v16.7
				c0,9.8-13.8,17.8-30.8,17.8s-30.8-8-30.8-17.8v-16.7"/>
		</g>
	</g>
	<g id="Brick_54_">
		<g id="Inline_54_">

				<line fill="none" stroke="#B90622" x1="73.9" y1="353.3" x2="219" y2="437.1"/>

				<line fill="none" stroke="#B90622" x1="219" y1="437.1" x2="219" y2="537.6"/>

				<line fill="none" stroke="#B90622" x1="364" y1="353.3" x2="219" y2="437.1"/>
		</g>
		<g id="Outline_54_">
			<polyline fill="none" stroke="#E4165A" points="219,269.6 73.9,353.3
				73.9,453.8 219,537.6 451.1,403.6 			"/>
		</g>
		<g id="Studs_54_">

				<ellipse fill="none" stroke="#E3174C" cx="146.5" cy="336.6" rx="30.8" ry="17.8"/>
			<path fill="none" stroke="#E3174C" d="M115.7,336.6v16.7
				c0,9.8,13.8,17.8,30.8,17.8s30.8-8,30.8-17.8v-16.7"/>

				<ellipse fill="none" stroke="#E3174C" cx="219" cy="294.7" rx="30.8" ry="17.8"/>
			<path fill="none" stroke="#E3174C" d="M188.2,294.7v16.7
				c0,9.8,13.8,17.8,30.8,17.8s30.8-8,30.8-17.8v-16.7"/>

				<ellipse fill="none" stroke="#E3174C" cx="219" cy="378.5" rx="30.8" ry="17.8"/>
			<path fill="none" stroke="#E3174C" d="M188.2,378.5v16.7
				c0,9.8,13.8,17.8,30.8,17.8s30.8-8,30.8-17.8v-16.7"/>

				<ellipse fill="none" stroke="#E3174C" cx="291.5" cy="336.6" rx="30.8" ry="17.8"/>
			<path fill="none" stroke="#E3174C" d="M260.7,336.6v16.7
				c0,9.8,13.8,17.8,30.8,17.8s30.8-8,30.8-17.8v-16.7"/>
		</g>
	</g>
</svg>
