
<svg viewBox="0 0 728.1 622.9">
	<g id="Brick_76_">
		<g id="Inline_76_">

				<line fill="none" stroke="#1F1F85" x1="581.6" y1="211" x2="436.6" y2="294.7"/>

				<line fill="none" stroke="#1F1F85" x1="436.6" y1="294.7" x2="436.6" y2="395.2"/>

				<line fill="none" stroke="#1F1F85" x1="146.5" y1="127.2" x2="436.6" y2="294.7"/>
		</g>
		<g id="Outline_76_">
			<polygon fill="none" stroke="#1D4B9C" points="436.6,395.2 146.5,227.7
				146.5,127.2 291.5,43.5 581.6,211 581.6,311.5 			"/>
		</g>
		<g id="Studs_76_">

				<ellipse fill="none" stroke="#204095" cx="509.1" cy="194.2" rx="30.8" ry="17.8"/>
			<path fill="none" stroke="#204095" d="M539.8,194.2V211
				c0,9.8-13.8,17.8-30.8,17.8c-17,0-30.8-8-30.8-17.8v-16.7"/>

				<ellipse fill="none" stroke="#204095" cx="436.6" cy="152.4" rx="30.8" ry="17.8"/>
			<path fill="none" stroke="#204095" d="M467.3,152.4v16.7
				c0,9.8-13.8,17.8-30.8,17.8c-17,0-30.8-8-30.8-17.8v-16.7"/>

				<ellipse fill="none" stroke="#204095" cx="364" cy="110.5" rx="30.8" ry="17.8"/>
			<path fill="none" stroke="#204095" d="M394.8,110.5v16.7
				c0,9.8-13.8,17.8-30.8,17.8c-17,0-30.8-8-30.8-17.8v-16.7"/>

				<ellipse fill="none" stroke="#204095" cx="291.5" cy="68.6" rx="30.8" ry="17.8"/>
			<path fill="none" stroke="#204095" d="M322.3,68.6v16.7
				c0,9.8-13.8,17.8-30.8,17.8s-30.8-8-30.8-17.8V68.6"/>

				<ellipse fill="none" stroke="#204095" cx="436.6" cy="236.1" rx="30.8" ry="17.8"/>
			<path fill="none" stroke="#204095" d="M467.3,236.1v16.7
				c0,9.8-13.8,17.8-30.8,17.8c-17,0-30.8-8-30.8-17.8v-16.7"/>

				<ellipse fill="none" stroke="#204095" cx="364" cy="194.2" rx="30.8" ry="17.8"/>
			<path fill="none" stroke="#204095" d="M394.8,194.2V211
				c0,9.8-13.8,17.8-30.8,17.8c-17,0-30.8-8-30.8-17.8v-16.7"/>

				<ellipse fill="none" stroke="#204095" cx="291.5" cy="152.4" rx="30.8" ry="17.8"/>
			<path fill="none" stroke="#204095" d="M322.3,152.4v16.7
				c0,9.8-13.8,17.8-30.8,17.8s-30.8-8-30.8-17.8v-16.7"/>

				<ellipse fill="none" stroke="#204095" cx="219" cy="110.5" rx="30.8" ry="17.8"/>
			<path fill="none" stroke="#204095" d="M249.8,110.5v16.7
				c0,9.8-13.8,17.8-30.8,17.8s-30.8-8-30.8-17.8v-16.7"/>
		</g>
	</g>
	<g id="Brick_52_">
		<g id="Inline_52_">

				<line fill="none" stroke="#B90622" x1="146.5" y1="395.2" x2="291.5" y2="479"/>

				<line fill="none" stroke="#B90622" x1="291.5" y1="479" x2="291.5" y2="579.4"/>

				<line fill="none" stroke="#B90622" x1="436.6" y1="395.2" x2="291.5" y2="479"/>
		</g>
		<g id="Outline_52_">
			<polyline fill="none" stroke="#E4165A" points="291.5,311.5 146.5,395.2
				146.5,495.7 291.5,579.4 581.6,412 581.6,311.5 			"/>
		</g>
		<g id="Studs_52_">

				<ellipse fill="none" stroke="#E3174C" cx="219" cy="378.5" rx="30.8" ry="17.8"/>
			<path fill="none" stroke="#E3174C" d="M188.2,378.5v16.7
				c0,9.8,13.8,17.8,30.8,17.8s30.8-8,30.8-17.8v-16.7"/>

				<ellipse fill="none" stroke="#E3174C" cx="291.5" cy="336.6" rx="30.8" ry="17.8"/>
			<path fill="none" stroke="#E3174C" d="M260.7,336.6v16.7
				c0,9.8,13.8,17.8,30.8,17.8s30.8-8,30.8-17.8v-16.7"/>

				<ellipse fill="none" stroke="#E3174C" cx="291.5" cy="420.3" rx="30.8" ry="17.8"/>
			<path fill="none" stroke="#E3174C" d="M260.7,420.3v16.7
				c0,9.8,13.8,17.8,30.8,17.8s30.8-8,30.8-17.8v-16.7"/>

				<ellipse fill="none" stroke="#E3174C" cx="364" cy="378.5" rx="30.8" ry="17.8"/>
			<path fill="none" stroke="#E3174C" d="M333.3,378.5v16.7
				c0,9.8,13.8,17.8,30.8,17.8c17,0,30.8-8,30.8-17.8v-16.7"/>
		</g>
	</g>
</svg>
