
<svg viewBox="0 0 728.1 622.9">
	<g id="Brick_75_">
		<g id="Inline_75_">

				<line fill="none" stroke="#1F1F85" x1="545.3" y1="190" x2="400.3" y2="273.8"/>

				<line fill="none" stroke="#1F1F85" x1="400.3" y1="273.8" x2="400.3" y2="374.3"/>

				<line fill="none" stroke="#1F1F85" x1="110.2" y1="106.3" x2="400.3" y2="273.8"/>
		</g>
		<g id="Outline_75_">
			<polygon fill="none" stroke="#1D4B9C" points="400.3,374.3 110.2,206.8
				110.2,106.3 255.2,22.6 545.3,190 545.3,290.5 			"/>
		</g>
		<g id="Studs_75_">

				<ellipse fill="none" stroke="#204095" cx="472.8" cy="173.3" rx="30.8" ry="17.8"/>
			<path fill="none" stroke="#204095" d="M503.6,173.3V190
				c0,9.8-13.8,17.8-30.8,17.8c-17,0-30.8-8-30.8-17.8v-16.7"/>

				<ellipse fill="none" stroke="#204095" cx="400.3" cy="131.4" rx="30.8" ry="17.8"/>
			<path fill="none" stroke="#204095" d="M431.1,131.4v16.7
				c0,9.8-13.8,17.8-30.8,17.8c-17,0-30.8-8-30.8-17.8v-16.7"/>

				<ellipse fill="none" stroke="#204095" cx="327.8" cy="89.6" rx="30.8" ry="17.8"/>
			<path fill="none" stroke="#204095" d="M358.5,89.6v16.7
				c0,9.8-13.8,17.8-30.8,17.8s-30.8-8-30.8-17.8V89.6"/>

				<ellipse fill="none" stroke="#204095" cx="255.2" cy="47.7" rx="30.8" ry="17.8"/>
			<path fill="none" stroke="#204095" d="M286,47.7v16.7
				c0,9.8-13.8,17.8-30.8,17.8s-30.8-8-30.8-17.8V47.7"/>

				<ellipse fill="none" stroke="#204095" cx="400.3" cy="215.2" rx="30.8" ry="17.8"/>
			<path fill="none" stroke="#204095" d="M431.1,215.2v16.7
				c0,9.8-13.8,17.8-30.8,17.8c-17,0-30.8-8-30.8-17.8v-16.7"/>

				<ellipse fill="none" stroke="#204095" cx="327.8" cy="173.3" rx="30.8" ry="17.8"/>
			<path fill="none" stroke="#204095" d="M358.5,173.3V190
				c0,9.8-13.8,17.8-30.8,17.8s-30.8-8-30.8-17.8v-16.7"/>

				<ellipse fill="none" stroke="#204095" cx="255.2" cy="131.4" rx="30.8" ry="17.8"/>
			<path fill="none" stroke="#204095" d="M286,131.4v16.7
				c0,9.8-13.8,17.8-30.8,17.8s-30.8-8-30.8-17.8v-16.7"/>

				<ellipse fill="none" stroke="#204095" cx="182.7" cy="89.6" rx="30.8" ry="17.8"/>
			<path fill="none" stroke="#204095" d="M213.5,89.6v16.7
				c0,9.8-13.8,17.8-30.8,17.8s-30.8-8-30.8-17.8V89.6"/>
		</g>
	</g>
	<g id="Brick_51_">
		<g id="Inline_51_">

				<line fill="none" stroke="#B90622" x1="182.7" y1="416.2" x2="327.8" y2="499.9"/>

				<line fill="none" stroke="#B90622" x1="327.8" y1="499.9" x2="327.8" y2="600.4"/>

				<line fill="none" stroke="#B90622" x1="617.9" y1="332.4" x2="327.8" y2="499.9"/>
		</g>
		<g id="Outline_51_">
			<polyline fill="none" stroke="#E4165A" points="327.8,332.4 182.7,416.2
				182.7,516.6 327.8,600.4 617.9,432.9 617.9,332.4 545.3,290.5 			"/>
		</g>
		<g id="Studs_51_">

				<ellipse fill="none" stroke="#E3174C" cx="255.2" cy="399.4" rx="30.8" ry="17.8"/>
			<path fill="none" stroke="#E3174C" d="M224.5,399.4v16.7
				c0,9.8,13.8,17.8,30.8,17.8s30.8-8,30.8-17.8v-16.7"/>

				<ellipse fill="none" stroke="#E3174C" cx="327.8" cy="357.5" rx="30.8" ry="17.8"/>
			<path fill="none" stroke="#E3174C" d="M297,357.5v16.7
				c0,9.8,13.8,17.8,30.8,17.8c17,0,30.8-8,30.8-17.8v-16.7"/>

				<ellipse fill="none" stroke="#E3174C" cx="327.8" cy="441.3" rx="30.8" ry="17.8"/>
			<path fill="none" stroke="#E3174C" d="M297,441.3V458
				c0,9.8,13.8,17.8,30.8,17.8c17,0,30.8-8,30.8-17.8v-16.7"/>

				<ellipse fill="none" stroke="#E3174C" cx="400.3" cy="399.4" rx="30.8" ry="17.8"/>
			<path fill="none" stroke="#E3174C" d="M369.5,399.4v16.7
				c0,9.8,13.8,17.8,30.8,17.8c17,0,30.8-8,30.8-17.8v-16.7"/>

				<ellipse fill="none" stroke="#E3174C" cx="472.8" cy="357.5" rx="30.8" ry="17.8"/>
			<path fill="none" stroke="#E3174C" d="M442,357.5v16.7
				c0,9.8,13.8,17.8,30.8,17.8s30.8-8,30.8-17.8v-16.7"/>

				<ellipse fill="none" stroke="#E3174C" cx="545.3" cy="315.7" rx="30.8" ry="17.8"/>
			<path fill="none" stroke="#E3174C" d="M514.6,315.7v16.7
				c0,9.8,13.8,17.8,30.8,17.8c17,0,30.8-8,30.8-17.8v-16.7"/>
		</g>
	</g>
</svg>
