
<svg viewBox="0 0 728.1 622.9">
	<g id="Brick_74_">
		<g id="Inline_74_">

				<line fill="none" stroke="#1F1F85" x1="581.6" y1="252.9" x2="436.6" y2="336.6"/>

				<line fill="none" stroke="#1F1F85" x1="436.6" y1="336.6" x2="436.6" y2="437.1"/>

				<line fill="none" stroke="#1F1F85" x1="146.5" y1="169.1" x2="436.6" y2="336.6"/>
		</g>
		<g id="Outline_74_">
			<polygon fill="none" stroke="#1D4B9C" points="436.6,437.1 146.5,269.6
				146.5,169.1 291.5,85.4 581.6,252.9 581.6,353.3 			"/>
		</g>
		<g id="Studs_74_">

				<ellipse fill="none" stroke="#204095" cx="509.1" cy="236.1" rx="30.8" ry="17.8"/>
			<path fill="none" stroke="#204095" d="M539.8,236.1v16.7
				c0,9.8-13.8,17.8-30.8,17.8c-17,0-30.8-8-30.8-17.8v-16.7"/>

				<ellipse fill="none" stroke="#204095" cx="436.6" cy="194.2" rx="30.8" ry="17.8"/>
			<path fill="none" stroke="#204095" d="M467.3,194.2V211
				c0,9.8-13.8,17.8-30.8,17.8c-17,0-30.8-8-30.8-17.8v-16.7"/>

				<ellipse fill="none" stroke="#204095" cx="364" cy="152.4" rx="30.8" ry="17.8"/>
			<path fill="none" stroke="#204095" d="M394.8,152.4v16.7
				c0,9.8-13.8,17.8-30.8,17.8s-30.8-8-30.8-17.8v-16.7"/>

				<ellipse fill="none" stroke="#204095" cx="291.5" cy="110.5" rx="30.8" ry="17.8"/>
			<path fill="none" stroke="#204095" d="M322.3,110.5v16.7
				c0,9.8-13.8,17.8-30.8,17.8s-30.8-8-30.8-17.8v-16.7"/>

				<ellipse fill="none" stroke="#204095" cx="436.6" cy="278" rx="30.8" ry="17.8"/>
			<path fill="none" stroke="#204095" d="M467.3,278v16.7
				c0,9.8-13.8,17.8-30.8,17.8c-17,0-30.8-8-30.8-17.8V278"/>

				<ellipse fill="none" stroke="#204095" cx="364" cy="236.1" rx="30.8" ry="17.8"/>
			<path fill="none" stroke="#204095" d="M394.8,236.1v16.7
				c0,9.8-13.8,17.8-30.8,17.8c-17,0-30.8-8-30.8-17.8v-16.7"/>

				<ellipse fill="none" stroke="#204095" cx="291.5" cy="194.2" rx="30.8" ry="17.8"/>
			<path fill="none" stroke="#204095" d="M322.3,194.2V211
				c0,9.8-13.8,17.8-30.8,17.8s-30.8-8-30.8-17.8v-16.7"/>

				<ellipse fill="none" stroke="#204095" cx="219" cy="152.4" rx="30.8" ry="17.8"/>
			<path fill="none" stroke="#204095" d="M249.8,152.4v16.7
				c0,9.8-13.8,17.8-30.8,17.8s-30.8-8-30.8-17.8v-16.7"/>
		</g>
	</g>
	<g id="Brick_50_">
		<g id="Inline_50_">

				<line fill="none" stroke="#B90622" x1="146.5" y1="353.3" x2="291.5" y2="437.1"/>

				<line fill="none" stroke="#B90622" x1="291.5" y1="437.1" x2="291.5" y2="537.6"/>

				<line fill="none" stroke="#B90622" x1="364" y1="395.2" x2="291.5" y2="437.1"/>
		</g>
		<g id="Outline_50_">
			<polyline fill="none" stroke="#E4165A" points="219,311.5 146.5,353.3
				146.5,453.8 291.5,537.6 581.6,370.1 581.6,353.3 			"/>
		</g>
		<g id="Studs_50_">

				<ellipse fill="none" stroke="#E3174C" cx="219" cy="336.6" rx="30.8" ry="17.8"/>
			<path fill="none" stroke="#E3174C" d="M188.2,336.6v16.7
				c0,9.8,13.8,17.8,30.8,17.8s30.8-8,30.8-17.8v-16.7"/>

				<ellipse fill="none" stroke="#E3174C" cx="291.5" cy="378.5" rx="30.8" ry="17.8"/>
			<path fill="none" stroke="#E3174C" d="M260.7,378.5v16.7
				c0,9.8,13.8,17.8,30.8,17.8c17,0,30.8-8,30.8-17.8v-16.7"/>
		</g>
	</g>
</svg>
