
<svg viewBox="0 0 728.1 622.9">
	<g id="Brick_73_">
		<g id="Inline_73_">

				<line fill="none" stroke="#1F1F85" x1="545.3" y1="231.9" x2="400.3" y2="315.7"/>

				<line fill="none" stroke="#1F1F85" x1="400.3" y1="315.7" x2="400.3" y2="416.2"/>

				<line fill="none" stroke="#1F1F85" x1="110.2" y1="148.2" x2="400.3" y2="315.7"/>
		</g>
		<g id="Outline_73_">
			<polygon fill="none" stroke="#1D4B9C" points="400.3,416.2 110.2,248.7
				110.2,148.2 255.2,64.4 545.3,231.9 545.3,332.4 			"/>
		</g>
		<g id="Studs_73_">

				<ellipse fill="none" stroke="#204095" cx="472.8" cy="215.2" rx="30.8" ry="17.8"/>
			<path fill="none" stroke="#204095" d="M503.6,215.2v16.7
				c0,9.8-13.8,17.8-30.8,17.8c-17,0-30.8-8-30.8-17.8v-16.7"/>

				<ellipse fill="none" stroke="#204095" cx="400.3" cy="173.3" rx="30.8" ry="17.8"/>
			<path fill="none" stroke="#204095" d="M431.1,173.3V190
				c0,9.8-13.8,17.8-30.8,17.8c-17,0-30.8-8-30.8-17.8v-16.7"/>

				<ellipse fill="none" stroke="#204095" cx="327.8" cy="131.4" rx="30.8" ry="17.8"/>
			<path fill="none" stroke="#204095" d="M358.5,131.4v16.7
				c0,9.8-13.8,17.8-30.8,17.8s-30.8-8-30.8-17.8v-16.7"/>

				<ellipse fill="none" stroke="#204095" cx="255.2" cy="89.6" rx="30.8" ry="17.8"/>
			<path fill="none" stroke="#204095" d="M286,89.6v16.7
				c0,9.8-13.8,17.8-30.8,17.8s-30.8-8-30.8-17.8V89.6"/>

				<ellipse fill="none" stroke="#204095" cx="400.3" cy="257" rx="30.8" ry="17.8"/>
			<path fill="none" stroke="#204095" d="M431.1,257v16.7
				c0,9.8-13.8,17.8-30.8,17.8c-17,0-30.8-8-30.8-17.8V257"/>

				<ellipse fill="none" stroke="#204095" cx="327.8" cy="215.2" rx="30.8" ry="17.8"/>
			<path fill="none" stroke="#204095" d="M358.5,215.2v16.7
				c0,9.8-13.8,17.8-30.8,17.8s-30.8-8-30.8-17.8v-16.7"/>

				<ellipse fill="none" stroke="#204095" cx="255.2" cy="173.3" rx="30.8" ry="17.8"/>
			<path fill="none" stroke="#204095" d="M286,173.3V190
				c0,9.8-13.8,17.8-30.8,17.8s-30.8-8-30.8-17.8v-16.7"/>

				<ellipse fill="none" stroke="#204095" cx="182.7" cy="131.4" rx="30.8" ry="17.8"/>
			<path fill="none" stroke="#204095" d="M213.5,131.4v16.7
				c0,9.8-13.8,17.8-30.8,17.8s-30.8-8-30.8-17.8v-16.7"/>
		</g>
	</g>
	<g id="Brick_49_">
		<g id="Inline_49_">

				<line fill="none" stroke="#B90622" x1="182.7" y1="374.3" x2="327.8" y2="458"/>

				<line fill="none" stroke="#B90622" x1="327.8" y1="458" x2="327.8" y2="558.5"/>

				<line fill="none" stroke="#B90622" x1="400.3" y1="416.2" x2="327.8" y2="458"/>

				<line fill="none" stroke="#B90622" x1="617.9" y1="290.5" x2="545.3" y2="332.4"/>
		</g>
		<g id="Outline_49_">
			<polyline fill="none" stroke="#E4165A" points="255.2,332.4 182.7,374.3
				182.7,474.8 327.8,558.5 617.9,391 617.9,290.5 545.3,248.7 			"/>
		</g>
		<g id="Studs_49_">

				<ellipse fill="none" stroke="#E3174C" cx="255.2" cy="357.5" rx="30.8" ry="17.8"/>
			<path fill="none" stroke="#E3174C" d="M224.5,357.5v16.7
				c0,9.8,13.8,17.8,30.8,17.8s30.8-8,30.8-17.8v-16.7"/>

				<ellipse fill="none" stroke="#E3174C" cx="327.8" cy="399.4" rx="30.8" ry="17.8"/>
			<path fill="none" stroke="#E3174C" d="M297,399.4v16.7
				c0,9.8,13.8,17.8,30.8,17.8c17,0,30.8-8,30.8-17.8v-16.7"/>
			<path fill="none" stroke="#E3174C" d="M545.3,256c17,0,30.8,8,30.8,17.8
				c0,9.8-13.8,17.8-30.8,17.8"/>
			<path fill="none" stroke="#E3174C" d="M545.3,308.3c17,0,30.8-8,30.8-17.8
				v-16.7"/>
		</g>
	</g>
</svg>
