
<svg viewBox="0 0 728.1 622.9">
	<g id="Brick_72_">
		<g id="Inline_72_">

				<line fill="none" stroke="#1F1F85" x1="509.1" y1="210.9" x2="364" y2="294.7"/>

				<line fill="none" stroke="#1F1F85" x1="364" y1="294.7" x2="364" y2="395.2"/>

				<line fill="none" stroke="#1F1F85" x1="73.9" y1="127.2" x2="364" y2="294.7"/>
		</g>
		<g id="Outline_72_">
			<polygon fill="none" stroke="#1D4B9C" points="364,395.2 73.9,227.7
				73.9,127.2 219,43.4 509.1,210.9 509.1,311.4 			"/>
		</g>
		<g id="Studs_72_">

				<ellipse fill="none" stroke="#204095" cx="436.6" cy="194.2" rx="30.8" ry="17.8"/>
			<path fill="none" stroke="#204095" d="M467.3,194.2v16.7
				c0,9.8-13.8,17.8-30.8,17.8c-17,0-30.8-8-30.8-17.8v-16.7"/>

				<ellipse fill="none" stroke="#204095" cx="364" cy="152.3" rx="30.8" ry="17.8"/>
			<path fill="none" stroke="#204095" d="M394.8,152.3v16.7
				c0,9.8-13.8,17.8-30.8,17.8c-17,0-30.8-8-30.8-17.8v-16.7"/>

				<ellipse fill="none" stroke="#204095" cx="291.5" cy="110.4" rx="30.8" ry="17.8"/>
			<path fill="none" stroke="#204095" d="M322.3,110.4v16.7
				c0,9.8-13.8,17.8-30.8,17.8s-30.8-8-30.8-17.8v-16.7"/>

				<ellipse fill="none" stroke="#204095" cx="219" cy="68.6" rx="30.8" ry="17.8"/>
			<path fill="none" stroke="#204095" d="M249.8,68.6v16.7
				c0,9.8-13.8,17.8-30.8,17.8s-30.8-8-30.8-17.8V68.6"/>

				<ellipse fill="none" stroke="#204095" cx="364" cy="236" rx="30.8" ry="17.8"/>
			<path fill="none" stroke="#204095" d="M394.8,236v16.7
				c0,9.8-13.8,17.8-30.8,17.8c-17,0-30.8-8-30.8-17.8V236"/>

				<ellipse fill="none" stroke="#204095" cx="291.5" cy="194.2" rx="30.8" ry="17.8"/>
			<path fill="none" stroke="#204095" d="M322.3,194.2v16.7
				c0,9.8-13.8,17.8-30.8,17.8s-30.8-8-30.8-17.8v-16.7"/>

				<ellipse fill="none" stroke="#204095" cx="219" cy="152.3" rx="30.8" ry="17.8"/>
			<path fill="none" stroke="#204095" d="M249.8,152.3v16.7
				c0,9.8-13.8,17.8-30.8,17.8s-30.8-8-30.8-17.8v-16.7"/>

				<ellipse fill="none" stroke="#204095" cx="146.5" cy="110.4" rx="30.8" ry="17.8"/>
			<path fill="none" stroke="#204095" d="M177.2,110.4v16.7
				c0,9.8-13.8,17.8-30.8,17.8s-30.8-8-30.8-17.8v-16.7"/>
		</g>
	</g>
	<g id="Brick_48_">
		<g id="Inline_48_">
			<line fill="none" stroke="#B90622" x1="219" y1="395.3" x2="364" y2="479"/>
			<line fill="none" stroke="#B90622" x1="364" y1="479" x2="364" y2="579.5"/>

				<line fill="none" stroke="#B90622" x1="654.1" y1="311.5" x2="364" y2="479"/>
		</g>
		<g id="Outline_48_">
			<polyline fill="none" stroke="#E4165A" points="291.5,353.4 219,395.3
				219,495.8 364,579.5 654.1,412 654.1,311.5 509.1,227.8 			"/>
		</g>
		<g id="Studs_48_">

				<ellipse fill="none" stroke="#E3174C" cx="291.5" cy="378.5" rx="30.8" ry="17.8"/>
			<path fill="none" stroke="#E3174C" d="M260.7,378.5v16.7
				c0,9.8,13.8,17.8,30.8,17.8s30.8-8,30.8-17.8v-16.7"/>
			<path fill="none" stroke="#E3174C" d="M509.1,235.1c17,0,30.8,8,30.8,17.8
				s-13.8,17.8-30.8,17.8"/>
			<path fill="none" stroke="#E3174C" d="M509.1,287.4c17,0,30.8-8,30.8-17.8
				v-16.7"/>

				<ellipse fill="none" stroke="#E3174C" cx="364" cy="420.4" rx="30.8" ry="17.8"/>
			<path fill="none" stroke="#E3174C" d="M333.3,420.4v16.7
				c0,9.8,13.8,17.8,30.8,17.8c17,0,30.8-8,30.8-17.8v-16.7"/>

				<ellipse fill="none" stroke="#E3174C" cx="436.6" cy="378.5" rx="30.8" ry="17.8"/>
			<path fill="none" stroke="#E3174C" d="M405.8,378.5v16.7
				c0,9.8,13.8,17.8,30.8,17.8c17,0,30.8-8,30.8-17.8v-16.7"/>

				<ellipse fill="none" stroke="#E3174C" cx="509.1" cy="336.7" rx="30.8" ry="17.8"/>
			<path fill="none" stroke="#E3174C" d="M478.3,336.7v16.7
				c0,9.8,13.8,17.8,30.8,17.8c17,0,30.8-8,30.8-17.8v-16.7"/>

				<ellipse fill="none" stroke="#E3174C" cx="581.6" cy="294.8" rx="30.8" ry="17.8"/>
			<path fill="none" stroke="#E3174C" d="M550.8,294.8v16.7
				c0,9.8,13.8,17.8,30.8,17.8c17,0,30.8-8,30.8-17.8v-16.7"/>
		</g>
	</g>
</svg>
