
<svg viewBox="0 0 728.1 622.9">
	<g id="Brick_90_">
		<g id="Inline_90_">

				<line fill="none" stroke="#1F1F85" x1="182.7" y1="190.1" x2="327.8" y2="273.8"/>

				<line fill="none" stroke="#1F1F85" x1="327.8" y1="273.8" x2="327.8" y2="374.3"/>

				<line fill="none" stroke="#1F1F85" x1="617.9" y1="106.3" x2="327.8" y2="273.8"/>
		</g>
		<g id="Outline_90_">
			<polygon fill="none" stroke="#1D4B9C" points="327.8,374.3 617.9,206.8
				617.9,106.3 472.8,22.6 182.7,190.1 182.7,290.5 			"/>
		</g>
		<g id="Studs_90_">

				<ellipse fill="none" stroke="#204095" cx="255.2" cy="173.3" rx="30.8" ry="17.8"/>
			<path fill="none" stroke="#204095" d="M224.5,173.3v16.7
				c0,9.8,13.8,17.8,30.8,17.8s30.8-8,30.8-17.8v-16.7"/>

				<ellipse fill="none" stroke="#204095" cx="327.8" cy="131.4" rx="30.8" ry="17.8"/>
			<path fill="none" stroke="#204095" d="M297,131.4v16.7
				c0,9.8,13.8,17.8,30.8,17.8c17,0,30.8-8,30.8-17.8v-16.7"/>

				<ellipse fill="none" stroke="#204095" cx="400.3" cy="89.6" rx="30.8" ry="17.8"/>
			<path fill="none" stroke="#204095" d="M369.5,89.6v16.7
				c0,9.8,13.8,17.8,30.8,17.8c17,0,30.8-8,30.8-17.8V89.6"/>

				<ellipse fill="none" stroke="#204095" cx="472.8" cy="47.7" rx="30.8" ry="17.8"/>
			<path fill="none" stroke="#204095" d="M442,47.7v16.7
				c0,9.8,13.8,17.8,30.8,17.8s30.8-8,30.8-17.8V47.7"/>

				<ellipse fill="none" stroke="#204095" cx="327.8" cy="215.2" rx="30.8" ry="17.8"/>
			<path fill="none" stroke="#204095" d="M297,215.2v16.7
				c0,9.8,13.8,17.8,30.8,17.8c17,0,30.8-8,30.8-17.8v-16.7"/>

				<ellipse fill="none" stroke="#204095" cx="400.3" cy="173.3" rx="30.8" ry="17.8"/>
			<path fill="none" stroke="#204095" d="M369.5,173.3v16.7
				c0,9.8,13.8,17.8,30.8,17.8c17,0,30.8-8,30.8-17.8v-16.7"/>

				<ellipse fill="none" stroke="#204095" cx="472.8" cy="131.4" rx="30.8" ry="17.8"/>
			<path fill="none" stroke="#204095" d="M442,131.4v16.7
				c0,9.8,13.8,17.8,30.8,17.8s30.8-8,30.8-17.8v-16.7"/>

				<ellipse fill="none" stroke="#204095" cx="545.3" cy="89.6" rx="30.8" ry="17.8"/>
			<path fill="none" stroke="#204095" d="M514.6,89.6v16.7
				c0,9.8,13.8,17.8,30.8,17.8c17,0,30.8-8,30.8-17.8V89.6"/>
		</g>
	</g>
	<g id="Brick_66_">
		<g id="Inline_66_">

				<line fill="none" stroke="#B90622" x1="110.2" y1="416.1" x2="255.2" y2="499.9"/>

				<line fill="none" stroke="#B90622" x1="255.2" y1="499.9" x2="255.2" y2="600.4"/>

				<line fill="none" stroke="#B90622" x1="545.3" y1="332.4" x2="255.2" y2="499.9"/>
		</g>
		<g id="Outline_66_">
			<polyline fill="none" stroke="#E4165A" points="255.2,332.4 110.2,416.1
				110.2,516.6 255.2,600.4 545.3,432.9 545.3,332.4 472.8,290.5 			"/>
		</g>
		<g id="Studs_66_">

				<ellipse fill="none" stroke="#E3174C" cx="182.7" cy="399.4" rx="30.8" ry="17.8"/>
			<path fill="none" stroke="#E3174C" d="M152,399.4v16.7
				c0,9.8,13.8,17.8,30.8,17.8s30.8-8,30.8-17.8v-16.7"/>

				<ellipse fill="none" stroke="#E3174C" cx="255.2" cy="357.5" rx="30.8" ry="17.8"/>
			<path fill="none" stroke="#E3174C" d="M224.5,357.5v16.7
				c0,9.8,13.8,17.8,30.8,17.8s30.8-8,30.8-17.8v-16.7"/>

				<ellipse fill="none" stroke="#E3174C" cx="255.2" cy="441.3" rx="30.8" ry="17.8"/>
			<path fill="none" stroke="#E3174C" d="M224.5,441.3V458
				c0,9.8,13.8,17.8,30.8,17.8s30.8-8,30.8-17.8v-16.7"/>

				<ellipse fill="none" stroke="#E3174C" cx="327.8" cy="399.4" rx="30.8" ry="17.8"/>
			<path fill="none" stroke="#E3174C" d="M297,399.4v16.7
				c0,9.8,13.8,17.8,30.8,17.8c17,0,30.8-8,30.8-17.8v-16.7"/>

				<ellipse fill="none" stroke="#E3174C" cx="400.3" cy="357.5" rx="30.8" ry="17.8"/>
			<path fill="none" stroke="#E3174C" d="M369.5,357.5v16.7
				c0,9.8,13.8,17.8,30.8,17.8c17,0,30.8-8,30.8-17.8v-16.7"/>

				<ellipse fill="none" stroke="#E3174C" cx="472.8" cy="315.7" rx="30.8" ry="17.8"/>
			<path fill="none" stroke="#E3174C" d="M442,315.7v16.7
				c0,9.8,13.8,17.8,30.8,17.8s30.8-8,30.8-17.8v-16.7"/>
		</g>
	</g>
</svg>
