
<svg viewBox="0 0 728.1 622.9">
	<g id="Brick_89_">
		<g id="Inline_89_">

				<line fill="none" stroke="#1F1F85" x1="146.5" y1="211" x2="291.5" y2="294.7"/>

				<line fill="none" stroke="#1F1F85" x1="291.5" y1="294.7" x2="291.5" y2="395.2"/>

				<line fill="none" stroke="#1F1F85" x1="581.6" y1="127.2" x2="291.5" y2="294.7"/>
		</g>
		<g id="Outline_89_">
			<polygon fill="none" stroke="#1D4B9C" points="291.5,395.2 581.6,227.7
				581.6,127.2 436.6,43.5 146.5,211 146.5,311.5 			"/>
		</g>
		<g id="Studs_89_">

				<ellipse fill="none" stroke="#204095" cx="219" cy="194.2" rx="30.8" ry="17.8"/>
			<path fill="none" stroke="#204095" d="M188.2,194.2V211
				c0,9.8,13.8,17.8,30.8,17.8s30.8-8,30.8-17.8v-16.7"/>

				<ellipse fill="none" stroke="#204095" cx="291.5" cy="152.4" rx="30.8" ry="17.8"/>
			<path fill="none" stroke="#204095" d="M260.7,152.4v16.7
				c0,9.8,13.8,17.8,30.8,17.8s30.8-8,30.8-17.8v-16.7"/>

				<ellipse fill="none" stroke="#204095" cx="364" cy="110.5" rx="30.8" ry="17.8"/>
			<path fill="none" stroke="#204095" d="M333.3,110.5v16.7
				c0,9.8,13.8,17.8,30.8,17.8c17,0,30.8-8,30.8-17.8v-16.7"/>

				<ellipse fill="none" stroke="#204095" cx="436.6" cy="68.6" rx="30.8" ry="17.8"/>
			<path fill="none" stroke="#204095" d="M405.8,68.6v16.7
				c0,9.8,13.8,17.8,30.8,17.8c17,0,30.8-8,30.8-17.8V68.6"/>

				<ellipse fill="none" stroke="#204095" cx="291.5" cy="236.1" rx="30.8" ry="17.8"/>
			<path fill="none" stroke="#204095" d="M260.7,236.1v16.7
				c0,9.8,13.8,17.8,30.8,17.8s30.8-8,30.8-17.8v-16.7"/>

				<ellipse fill="none" stroke="#204095" cx="364" cy="194.2" rx="30.8" ry="17.8"/>
			<path fill="none" stroke="#204095" d="M333.3,194.2V211
				c0,9.8,13.8,17.8,30.8,17.8c17,0,30.8-8,30.8-17.8v-16.7"/>

				<ellipse fill="none" stroke="#204095" cx="436.6" cy="152.4" rx="30.8" ry="17.8"/>
			<path fill="none" stroke="#204095" d="M405.8,152.4v16.7
				c0,9.8,13.8,17.8,30.8,17.8c17,0,30.8-8,30.8-17.8v-16.7"/>

				<ellipse fill="none" stroke="#204095" cx="509.1" cy="110.5" rx="30.8" ry="17.8"/>
			<path fill="none" stroke="#204095" d="M478.3,110.5v16.7
				c0,9.8,13.8,17.8,30.8,17.8c17,0,30.8-8,30.8-17.8v-16.7"/>
		</g>
	</g>
	<g id="Brick_65_">
		<g id="Inline_65_">

				<line fill="none" stroke="#B90622" x1="146.5" y1="395.2" x2="291.5" y2="479"/>

				<line fill="none" stroke="#B90622" x1="291.5" y1="479" x2="291.5" y2="579.4"/>

				<line fill="none" stroke="#B90622" x1="581.6" y1="311.5" x2="291.5" y2="479"/>
		</g>
		<g id="Outline_65_">
			<polyline fill="none" stroke="#E4165A" points="217.2,354.4 146.5,395.2
				146.5,495.7 291.5,579.4 581.6,412 581.6,311.5 509.1,269.6 			"/>
		</g>
		<g id="Studs_65_">

				<ellipse fill="none" stroke="#E3174C" cx="219" cy="378.5" rx="30.8" ry="17.8"/>
			<path fill="none" stroke="#E3174C" d="M188.2,378.5v16.7
				c0,9.8,13.8,17.8,30.8,17.8s30.8-8,30.8-17.8v-16.7"/>

				<ellipse fill="none" stroke="#E3174C" cx="291.5" cy="420.3" rx="30.8" ry="17.8"/>
			<path fill="none" stroke="#E3174C" d="M260.7,420.3v16.7
				c0,9.8,13.8,17.8,30.8,17.8c17,0,30.8-8,30.8-17.8v-16.7"/>

				<ellipse fill="none" stroke="#E3174C" cx="364" cy="378.5" rx="30.8" ry="17.8"/>
			<path fill="none" stroke="#E3174C" d="M333.3,378.5v16.7
				c0,9.8,13.8,17.8,30.8,17.8c17,0,30.8-8,30.8-17.8v-16.7"/>

				<ellipse fill="none" stroke="#E3174C" cx="436.6" cy="336.6" rx="30.8" ry="17.8"/>
			<path fill="none" stroke="#E3174C" d="M405.8,336.6v16.7
				c0,9.8,13.8,17.8,30.8,17.8s30.8-8,30.8-17.8v-16.7"/>

				<ellipse fill="none" stroke="#E3174C" cx="509.1" cy="294.7" rx="30.8" ry="17.8"/>
			<path fill="none" stroke="#E3174C" d="M478.3,294.7v16.7
				c0,9.8,13.8,17.8,30.8,17.8c17,0,30.8-8,30.8-17.8v-16.7"/>
		</g>
	</g>
</svg>
