
<svg viewBox="0 0 728.1 622.9">
	<g id="Brick_88_">
		<g id="Inline_88_">

				<line fill="none" stroke="#1F1F85" x1="110.2" y1="231.9" x2="255.2" y2="315.7"/>

				<line fill="none" stroke="#1F1F85" x1="255.2" y1="315.7" x2="255.2" y2="416.2"/>

				<line fill="none" stroke="#1F1F85" x1="545.3" y1="148.2" x2="255.2" y2="315.7"/>
		</g>
		<g id="Outline_88_">
			<polygon fill="none" stroke="#1D4B9C" points="255.2,416.2 545.3,248.7
				545.3,148.2 400.3,64.4 110.2,231.9 110.2,332.4 			"/>
		</g>
		<g id="Studs_88_">

				<ellipse fill="none" stroke="#204095" cx="182.7" cy="215.2" rx="30.8" ry="17.8"/>
			<path fill="none" stroke="#204095" d="M152,215.2v16.7
				c0,9.8,13.8,17.8,30.8,17.8s30.8-8,30.8-17.8v-16.7"/>

				<ellipse fill="none" stroke="#204095" cx="255.2" cy="173.3" rx="30.8" ry="17.8"/>
			<path fill="none" stroke="#204095" d="M224.5,173.3V190
				c0,9.8,13.8,17.8,30.8,17.8s30.8-8,30.8-17.8v-16.7"/>

				<ellipse fill="none" stroke="#204095" cx="327.8" cy="131.4" rx="30.8" ry="17.8"/>
			<path fill="none" stroke="#204095" d="M297,131.4v16.7
				c0,9.8,13.8,17.8,30.8,17.8c17,0,30.8-8,30.8-17.8v-16.7"/>

				<ellipse fill="none" stroke="#204095" cx="400.3" cy="89.6" rx="30.8" ry="17.8"/>
			<path fill="none" stroke="#204095" d="M369.5,89.6v16.7
				c0,9.8,13.8,17.8,30.8,17.8c17,0,30.8-8,30.8-17.8V89.6"/>

				<ellipse fill="none" stroke="#204095" cx="255.2" cy="257" rx="30.8" ry="17.8"/>
			<path fill="none" stroke="#204095" d="M224.5,257v16.7
				c0,9.8,13.8,17.8,30.8,17.8s30.8-8,30.8-17.8V257"/>

				<ellipse fill="none" stroke="#204095" cx="327.8" cy="215.2" rx="30.8" ry="17.8"/>
			<path fill="none" stroke="#204095" d="M297,215.2v16.7
				c0,9.8,13.8,17.8,30.8,17.8c17,0,30.8-8,30.8-17.8v-16.7"/>

				<ellipse fill="none" stroke="#204095" cx="400.3" cy="173.3" rx="30.8" ry="17.8"/>
			<path fill="none" stroke="#204095" d="M369.5,173.3V190
				c0,9.8,13.8,17.8,30.8,17.8c17,0,30.8-8,30.8-17.8v-16.7"/>

				<ellipse fill="none" stroke="#204095" cx="472.8" cy="131.4" rx="30.8" ry="17.8"/>
			<path fill="none" stroke="#204095" d="M442,131.4v16.7
				c0,9.8,13.8,17.8,30.8,17.8s30.8-8,30.8-17.8v-16.7"/>
		</g>
	</g>
	<g id="Brick_64_">
		<g id="Inline_64_">

				<line fill="none" stroke="#B90622" x1="255.2" y1="416.2" x2="327.8" y2="458"/>

				<line fill="none" stroke="#B90622" x1="327.8" y1="458" x2="327.8" y2="558.5"/>

				<line fill="none" stroke="#B90622" x1="617.9" y1="290.5" x2="327.8" y2="458"/>
		</g>
		<g id="Outline_64_">
			<polyline fill="none" stroke="#E4165A" points="182.7,374.3 182.7,474.8
				327.8,558.5 617.9,391 617.9,290.5 545.3,248.7 			"/>
		</g>
		<g id="Studs_64_">

				<ellipse fill="none" stroke="#E3174C" cx="327.8" cy="399.4" rx="30.8" ry="17.8"/>
			<path fill="none" stroke="#E3174C" d="M297,399.4v16.7
				c0,9.8,13.8,17.8,30.8,17.8c17,0,30.8-8,30.8-17.8v-16.7"/>

				<ellipse fill="none" stroke="#E3174C" cx="400.3" cy="357.5" rx="30.8" ry="17.8"/>
			<path fill="none" stroke="#E3174C" d="M369.5,357.5v16.7
				c0,9.8,13.8,17.8,30.8,17.8c17,0,30.8-8,30.8-17.8v-16.7"/>

				<ellipse fill="none" stroke="#E3174C" cx="472.8" cy="315.7" rx="30.8" ry="17.8"/>
			<path fill="none" stroke="#E3174C" d="M442,315.7v16.7
				c0,9.8,13.8,17.8,30.8,17.8s30.8-8,30.8-17.8v-16.7"/>

				<ellipse fill="none" stroke="#E3174C" cx="545.3" cy="273.8" rx="30.8" ry="17.8"/>
			<path fill="none" stroke="#E3174C" d="M514.6,273.8v16.7
				c0,9.8,13.8,17.8,30.8,17.8c17,0,30.8-8,30.8-17.8v-16.7"/>
		</g>
	</g>
</svg>
