
<svg viewBox="0 0 728.1 622.9">
	<g id="Brick_87_">
		<g id="Inline_87_">

				<line fill="none" stroke="#1F1F85" x1="291.5" y1="210.4" x2="436.6" y2="294.2"/>

				<line fill="none" stroke="#1F1F85" x1="436.6" y1="294.2" x2="436.6" y2="394.6"/>

				<line fill="none" stroke="#1F1F85" x1="726.6" y1="126.7" x2="436.6" y2="294.2"/>
		</g>
		<g id="Outline_87_">
			<polygon fill="none" stroke="#1D4B9C" points="436.6,394.6 726.6,227.2
				726.6,126.7 581.6,42.9 291.5,210.4 291.5,310.9 			"/>
		</g>
		<g id="Studs_87_">

				<ellipse fill="none" stroke="#204095" cx="364" cy="193.7" rx="30.8" ry="17.8"/>
			<path fill="none" stroke="#204095" d="M333.3,193.7v16.7
				c0,9.8,13.8,17.8,30.8,17.8c17,0,30.8-8,30.8-17.8v-16.7"/>

				<ellipse fill="none" stroke="#204095" cx="436.6" cy="151.8" rx="30.8" ry="17.8"/>
			<path fill="none" stroke="#204095" d="M405.8,151.8v16.7
				c0,9.8,13.8,17.8,30.8,17.8c17,0,30.8-8,30.8-17.8v-16.7"/>

				<ellipse fill="none" stroke="#204095" cx="509.1" cy="109.9" rx="30.8" ry="17.8"/>
			<path fill="none" stroke="#204095" d="M478.3,109.9v16.7
				c0,9.8,13.8,17.8,30.8,17.8c17,0,30.8-8,30.8-17.8v-16.7"/>

				<ellipse fill="none" stroke="#204095" cx="581.6" cy="68.1" rx="30.8" ry="17.8"/>
			<path fill="none" stroke="#204095" d="M550.8,68.1v16.7
				c0,9.8,13.8,17.8,30.8,17.8c17,0,30.8-8,30.8-17.8V68.1"/>

				<ellipse fill="none" stroke="#204095" cx="436.6" cy="235.5" rx="30.8" ry="17.8"/>
			<path fill="none" stroke="#204095" d="M405.8,235.5v16.7
				c0,9.8,13.8,17.8,30.8,17.8c17,0,30.8-8,30.8-17.8v-16.7"/>

				<ellipse fill="none" stroke="#204095" cx="509.1" cy="193.7" rx="30.8" ry="17.8"/>
			<path fill="none" stroke="#204095" d="M478.3,193.7v16.7
				c0,9.8,13.8,17.8,30.8,17.8c17,0,30.8-8,30.8-17.8v-16.7"/>

				<ellipse fill="none" stroke="#204095" cx="581.6" cy="151.8" rx="30.8" ry="17.8"/>
			<path fill="none" stroke="#204095" d="M550.8,151.8v16.7
				c0,9.8,13.8,17.8,30.8,17.8c17,0,30.8-8,30.8-17.8v-16.7"/>

				<ellipse fill="none" stroke="#204095" cx="654.1" cy="109.9" rx="30.8" ry="17.8"/>
			<path fill="none" stroke="#204095" d="M623.4,109.9v16.7
				c0,9.8,13.8,17.8,30.8,17.8s30.8-8,30.8-17.8v-16.7"/>
		</g>
	</g>
	<g id="Brick_63_">
		<g id="Inline_63_">

				<line fill="none" stroke="#B90622" x1="1.4" y1="395.8" x2="146.5" y2="479.5"/>

				<line fill="none" stroke="#B90622" x1="146.5" y1="479.5" x2="146.5" y2="580"/>

				<line fill="none" stroke="#B90622" x1="365" y1="353.3" x2="146.5" y2="479.5"/>
		</g>
		<g id="Outline_63_">
			<polyline fill="none" stroke="#E4165A" points="291.5,228.3 1.4,395.8
				1.4,496.3 146.5,580 436.6,412.5 436.6,394.6 			"/>
		</g>
		<g id="Studs_63_">

				<ellipse fill="none" stroke="#E3174C" cx="73.9" cy="379" rx="30.8" ry="17.8"/>
			<path fill="none" stroke="#E3174C" d="M43.2,379v16.7
				c0,9.8,13.8,17.8,30.8,17.8s30.8-8,30.8-17.8V379"/>

				<ellipse fill="none" stroke="#E3174C" cx="146.5" cy="337.2" rx="30.8" ry="17.8"/>
			<path fill="none" stroke="#E3174C" d="M115.7,337.2v16.7
				c0,9.8,13.8,17.8,30.8,17.8s30.8-8,30.8-17.8v-16.7"/>

				<ellipse fill="none" stroke="#E3174C" cx="219" cy="295.3" rx="30.8" ry="17.8"/>
			<path fill="none" stroke="#E3174C" d="M188.2,295.3V312
				c0,9.8,13.8,17.8,30.8,17.8s30.8-8,30.8-17.8v-16.7"/>
			<path fill="none" stroke="#E3174C" d="M291.5,271.2c-17,0-30.8-8-30.8-17.8
				c0-9.8,13.8-17.8,30.8-17.8"/>
			<path fill="none" stroke="#E3174C" d="M260.7,253.4v16.7
				c0,9.8,13.8,17.8,30.8,17.8"/>

				<ellipse fill="none" stroke="#E3174C" cx="146.5" cy="420.9" rx="30.8" ry="17.8"/>
			<path fill="none" stroke="#E3174C" d="M115.7,420.9v16.7
				c0,9.8,13.8,17.8,30.8,17.8s30.8-8,30.8-17.8v-16.7"/>

				<ellipse fill="none" stroke="#E3174C" cx="219" cy="379" rx="30.8" ry="17.8"/>
			<path fill="none" stroke="#E3174C" d="M188.2,379v16.7
				c0,9.8,13.8,17.8,30.8,17.8s30.8-8,30.8-17.8V379"/>

				<ellipse fill="none" stroke="#E3174C" cx="291.5" cy="337.2" rx="30.8" ry="17.8"/>
			<path fill="none" stroke="#E3174C" d="M260.7,337.2v16.7
				c0,9.8,13.8,17.8,30.8,17.8c17,0,30.8-8,30.8-17.8v-16.7"/>
		</g>
	</g>
</svg>
