<?xml version="1.0" encoding="UTF-8" standalone="no"?>
<svg
   xmlns:dc="http://purl.org/dc/elements/1.1/"
   xmlns:cc="http://creativecommons.org/ns#"
   xmlns:rdf="http://www.w3.org/1999/02/22-rdf-syntax-ns#"
   xmlns:svg="http://www.w3.org/2000/svg"
   xmlns="http://www.w3.org/2000/svg"
   xmlns:sodipodi="http://sodipodi.sourceforge.net/DTD/sodipodi-0.dtd"
   xmlns:inkscape="http://www.inkscape.org/namespaces/inkscape"
   version="1.1"
   id="svg57088"
   sodipodi:docname="letter-paths.svg"
   width="70"
   height="110"
   inkscape:version="1.0.1 (c497b03c, 2020-09-10)">
  <metadata
     id="metadata57094">
    <rdf:RDF>
      <cc:Work
         rdf:about="">
        <dc:format>image/svg+xml</dc:format>
        <dc:type
           rdf:resource="http://purl.org/dc/dcmitype/StillImage" />
        <dc:title></dc:title>
      </cc:Work>
    </rdf:RDF>
  </metadata>
  <defs
     id="defs57092" />
  <sodipodi:namedview
     pagecolor="#ffffff"
     bordercolor="#666666"
     borderopacity="1"
     objecttolerance="10"
     gridtolerance="10"
     guidetolerance="10"
     inkscape:pageopacity="0"
     inkscape:pageshadow="2"
     inkscape:window-width="1440"
     inkscape:window-height="847"
     id="namedview57090"
     showgrid="false"
     inkscape:zoom="3.3719799"
     inkscape:cx="55.396826"
     inkscape:cy="75"
     inkscape:window-x="0"
     inkscape:window-y="25"
     inkscape:window-maximized="1"
     inkscape:current-layer="layer1" />
  <g
     inkscape:groupmode="layer"
     id="layer1"
     inkscape:label="Letters">
    <path
       d="m 19.7739,36.136818 7.45491,-4.292219 6.32539,-1.807255 6.43833,-0.67772 4.96994,1.807252 4.29223,3.840409 2.82382,5.760611 0.33886,7.793776 v 23.833127 9.589728 l -0.33886,-9.589728 -4.63108,3.185279 -4.96993,3.569333 -5.64767,2.484964 -6.43833,1.061728 -5.3088,-1.773367 -4.29223,-2.846422 -3.20787,-4.619787 v -6.822371 l 2.53015,-5.308801 5.64766,-4.631079 5.64766,-2.146115 6.7772,-2.146115 6.43833,-1.016582 3.95337,-0.338859 h 3.16268"
       id="path57036"
       style="fill:none;stroke:#000000;stroke-opacity:1" />
    <path
       d="M 15.06376,3.3803814 V 82.696135 73.072522 l 3.95336,3.230467 5.98653,3.908182 6.43833,1.773367 6.32538,0.361487 7.56787,-4.269624 4.63108,-5.003837 3.50154,-7.116054 1.4684,-8.923297 -0.45178,-8.810358 -1.69431,-8.245589 -5.3088,-6.777194 -4.63108,-2.484964 -6.43833,-1.355442 -6.77719,1.355442 -6.7772,3.614497 -7.11605,5.647661"
       id="path57038"
       style="fill:none;stroke:#000000;stroke-opacity:1" />
    <path
       d="m 53.3436,76.302989 -5.76061,4.269626 -8.4715,1.773367 -7.90672,-1.073052 -8.13263,-5.331396 -4.63108,-7.500091 -1.78467,-8.810347 v -9.262171 l 2.80124,-8.584446 5.76062,-6.777194 6.7772,-3.840409 7.4549,-1.129532 6.32538,1.129532 4.29223,2.033154 1.80725,2.146115"
       id="path57040"
       style="fill:none;stroke:#000000;stroke-opacity:1" />
    <path
       d="M 54.76677,3.7192414 V 81.984538 71.265277 l -4.96994,5.037712 -6.77719,4.619789 -6.77719,1.773357 -5.64766,-1.061728 -5.76063,-2.484964 -5.64766,-6.07689 -3.56932,-8.132627 -0.72287,-9.939888 2.48497,-11.747135 6.09948,-8.923309 8.47149,-4.292216 6.77719,-0.677722 7.11606,2.484974 4.63108,2.823827 4.63109,4.292227"
       id="path57042"
       style="fill:none;stroke:#000000;stroke-opacity:1" />
    <path
       d="M 15.76967,54.548193 H 54.94186 V 48.22281 l -1.80725,-8.245586 -5.30881,-6.325373 -5.42174,-3.614507 -7.45492,-0.33886 -7.45492,2.146115 -6.43833,5.308801 -2.48497,5.308801 -2.80125,6.777191 -0.71155,7.116056 1.77336,8.584446 3.20787,7.793768 6.43834,6.415749 5.98652,2.835127 7.45491,0.711554 6.43833,-1.773356 6.09948,-3.207877"
       id="path57044"
       style="fill:none;stroke:#000000;stroke-opacity:1" />
    <path
       d="M 30.47768,82.345982 V 31.166876 H 21.99489 44.03207 30.13882 V 15.466343 l 1.12953,-5.308747 3.50155,-5.4217717 5.3088,-2.0331639 4.63109,0.677721 3.27564,1.3554429"
       id="path57046"
       style="fill:none;stroke:#000000;stroke-opacity:1" />
    <path
       d="m 23.08343,79.861018 -5.30881,4.975585 -3.56932,6.048648 -0.72287,6.359268 4.96994,5.421761 8.24559,3.50154 9.60103,1.12954 8.47149,-2.14611 8.58444,-5.760627 3.16269,-5.308801 -0.33886,-6.042991 -3.16269,-5.692849 -7.90672,-2.134811 H 23.42231 l -4.63108,-3.196585 -2.14611,-4.958636 1.12953,-4.631089 5.98652,-6.777197 3.95337,2.484978 6.09947,1.016582 7.45492,-2.484975 5.3088,-4.969941 2.48497,-5.986524 V 43.591731 L 46.23884,37.1534 44.09272,34.329573 39.12278,31.166876 H 56.17872 39.12278 l -5.3088,-1.129532 -8.24558,0.677722 -5.64767,4.631089 -3.27564,6.438334 -0.33886,7.116054 1.46839,5.647661 2.82384,3.614499 3.16268,2.823834"
       id="path57048"
       style="fill:none;stroke:#000000;stroke-opacity:1" />
    <path
       d="M 17.20986,81.984538 V 3.7192414 43.252871 l 5.3088,-5.760611 4.63109,-4.29223 6.77719,-2.823824 6.7772,-0.677722 7.79376,4.292219 2.82384,4.969949 1.46839,8.132628 v 35.252702"
       id="path57050"
       style="fill:none;stroke:#000000;stroke-opacity:1" />
    <path
       d="M 35.36144,82.696135 V 30.376206 M 32.15356,8.6892354 v 5.6476076 h 5.69285 V 8.6892354 h -5.69285"
       id="path57052"
       style="fill:none;stroke:#000000;stroke-opacity:1" />
    <path
       d="m 25.7689,105.4901 h 0.71166 l 3.91382,1.01658 5.34269,-0.33886 4.65367,-3.16268 1.35544,-5.760621 V 30.037344 M 38.58344,9.0280954 v 5.3087476 h 5.64767 V 9.0280954 h -5.64767"
       id="path57054"
       style="fill:none;stroke:#000000;stroke-opacity:1" />
    <path
       d="M 17.37929,82.696135 V 3.3803814 M 48.66733,30.376206 17.71815,67.763721 M 32.28912,49.917114 52.6207,82.696135"
       id="path57056"
       style="fill:none;stroke:#000000;stroke-opacity:1" />
    <path
       d="M 31.95026,3.7192414 V 77.364751 l 0.67772,2.496267 1.12953,1.411912 1.80726,1.073052 h 2.48496"
       id="path57058"
       style="fill:none;stroke:#000000;stroke-opacity:1" />
    <path
       d="M 1.56584,82.696135 V 30.376206 42.123338 l 4.96994,-4.292216 4.63109,-3.840409 4.29222,-2.823837 5.3088,-1.468392 4.63109,0.677722 3.16268,1.468393 3.61451,3.501546 2.48496,6.099482 0.67773,7.454905 V 82.696145 43.252871 l 1.46839,-2.936774 7.45491,-6.664246 5.64767,-2.936785 4.63107,-1.355442 4.96994,1.355442 3.27565,1.807255 3.84041,4.631079 1.80725,9.262168 v 35.930414"
       id="path57060"
       style="fill:none;stroke:#000000;stroke-opacity:1" />
    <path
       d="M 17.37929,82.696135 V 30.037344 42.801061 l 4.96994,-4.969939 4.63109,-4.179271 3.6145,-2.146112 5.3088,-1.468395 3.50155,-0.33886 5.42175,1.468392 3.16269,2.033154 2.48497,3.614507 2.14612,4.969942 v 40.911656"
       id="path57062"
       style="fill:none;stroke:#000000;stroke-opacity:1" />
    <path
       d="m 35.76807,82.345982 h 0.33886 l 7.11606,-1.773367 6.77719,-4.631081 4.17927,-7.161231 1.80725,-7.793776 0.33887,-7.454916 -1.01659,-6.777194 -2.48496,-5.98651 -3.61451,-4.631089 -4.96994,-4.292219 -5.3088,-1.807255 -4.96994,-0.33886 -5.76062,1.016582 -5.3088,3.275647 -4.63108,5.308802 -2.48498,4.969938 -2.10092,7.454916 v 5.760612 l 0.70034,6.664243 1.73949,6.099471 4.29223,5.692839 4.96993,3.919484 5.42176,2.12352 4.96993,0.361487"
       id="path57064"
       style="fill:none;stroke:#000000;stroke-opacity:1" />
    <path
       d="M 15.06374,106.50668 V 30.037344 41.445616 l 5.98653,-6.099471 7.11605,-3.840406 6.09947,-1.129533 h 7.45492 l 5.76061,3.275645 4.96995,7.116056 2.48496,8.132625 v 9.262171 l -1.12953,7.793763 -3.84041,8.200411 -5.7606,5.342686 -4.29224,2.134812 -6.66423,0.350173 -5.42176,-1.061728 -5.98652,-3.207874 -5.76061,-3.908179"
       id="path57066"
       style="fill:none;stroke:#000000;stroke-opacity:1" />
    <path
       d="m 54.93623,106.16782 v -75.791614 7.793776 l -6.43833,-4.518131 -6.77719,-2.936785 -8.4715,-0.677722 -7.90673,3.162686 -5.3088,6.438334 -3.54673,7.793775 -1.42321,6.438334 0.36149,6.438332 0.71156,6.777193 2.8803,6.720724 4.63109,4.619789 4.96994,2.846419 6.77719,1.423205 7.45492,-2.12352 6.77719,-4.269637 4.96994,-4.247038"
       id="path57068"
       style="fill:none;stroke:#000000;stroke-opacity:1" />
    <path
       d="M 24.15648,82.345982 V 30.037344 46.076706 l 3.27565,-6.438332 4.96994,-6.438344 5.3088,-2.484964 4.96994,-0.677722 3.1627,0.338862"
       id="path57070"
       style="fill:none;stroke:#000000;stroke-opacity:1" />
    <path
       d="m 18.28856,75.580092 6.42704,4.280926 7.11608,2.12352 5.64771,0.711554 7.11597,-2.484966 5.30885,-4.269635 1.80722,-6.37056 -1.35544,-6.438332 -6.43835,-5.308801 -8.9233,-3.614507 -8.13266,-3.501546 -4.63102,-4.631079 -1.08436,-5.308801 1.76208,-5.082903 5.76063,-4.969938 7.00305,-1.016583 7.22899,1.468393 5.98658,3.501546"
       id="path57072"
       style="fill:none;stroke:#000000;stroke-opacity:1" />
    <path
       d="M 49.21099,80.211171 45.3706,81.984538 H 40.2877 L 35.76959,80.572615 31.81618,75.941534 31.13846,68.10258 V 31.505739 H 20.76932 48.19431 31.13846 V 15.466343"
       id="path57074"
       style="fill:none;stroke:#000000;stroke-opacity:1" />
    <path
       d="M 52.22565,30.715066 V 82.345982 68.780303 l -3.84039,4.676267 -4.63113,4.619789 -6.43835,3.558016 -6.09939,1.061728 -6.32544,-1.773357 -4.29227,-3.558029 -2.48494,-4.63109 -0.3394,-8.923297 V 30.715034"
       id="path57076"
       style="fill:none;stroke:#000000;stroke-opacity:1" />
    <path
       d="M 14.69663,29.698484 34.2941,82.696135 h 1.35544 L 55.30336,29.698484"
       id="path57078"
       style="fill:none;stroke:#000000;stroke-opacity:1" />
    <path
       d="m 2.06849,30.037344 15.5988,53.376044 h 1.46837 L 34.04553,30.037344 h 2.14608 L 51.2144,83.413388 h 1.35544 L 67.9315,30.037344"
       id="path57080"
       style="fill:none;stroke:#000000;stroke-opacity:1" />
    <path
       d="M 15.98996,83.413388 51.52509,29.698484 m -33.40025,0 35.88519,53.714904"
       id="path57082"
       style="fill:none;stroke:#000000;stroke-opacity:1" />
    <path
       d="m 15.09195,30.376206 21.40469,53.74879 m 18.4114,-53.40993 -22.02595,62.666452 -2.48494,5.331383 -3.50153,3.953379 -4.29227,2.48497 h -7.5114"
       id="path57084"
       style="fill:none;stroke:#000000;stroke-opacity:1" />
    <path
       d="M 18.82507,31.844599 H 50.47455 L 17.04036,80.922778 H 52.9595"
       id="path57086"
       style="fill:none;stroke:#000000;stroke-opacity:1" />
  </g>
</svg>
