<?xml version="1.0" encoding="utf-8"?>
<!-- Generator: Adobe Illustrator 25.2.1, SVG Export Plug-In . SVG Version: 6.00 Build 0)  -->
<svg version="1.1" id="Layer_1" xmlns="http://www.w3.org/2000/svg" xmlns:xlink="http://www.w3.org/1999/xlink" x="0px" y="0px"
	 viewBox="0 0 100 121" enable-background="new 0 0 100 121" xml:space="preserve">
<g>
	<path fill="#eb4b5c" d="M50,120.4c2.5,0,4.2-0.9,7-2.5c2.5-1.7,5.7-4.5,8.1-7.5c16.2-17.5,29.6-43.2,34.6-72.2
		c1.2-10.6-1.4-21.2-11.8-28.9C76.7,2.4,62.9-0.1,50,0C37-0.1,23.3,2.4,12.1,9.3C1.7,17-1,27.6,0.3,38.2
		C5.4,67.2,18.7,92.9,35,110.4c2.4,3,5.6,5.8,8.1,7.5C45,119,47.5,120.4,50,120.4z"/>
</g>
<g>
	<path fill="#ec765c" d="M50,120.4c2.5,0,4.2-0.9,7-2.5c2.5-1.7,5.7-4.5,8.1-7.5c16.2-17.5,29.6-43.2,34.6-72.2
		c1.2-10.6-1.4-21.2-11.8-28.9C76.7,2.4,62.9-0.1,50,0C37-0.1,23.3,2.4,12.1,9.3C1.7,17-1,27.6,0.3,38.2
		C5.4,67.2,18.7,92.9,35,110.4c2.4,3,5.6,5.8,8.1,7.5C45,119,47.5,120.4,50,120.4z"/>
</g>
<g>
	<path fill="#e8d135" d="M50,120.4c2.5,0,4.2-0.9,7-2.5c2.5-1.7,5.7-4.5,8.1-7.5c16.2-17.5,29.6-43.2,34.6-72.2
		c1.2-10.6-1.4-21.2-11.8-28.9C76.7,2.4,62.9-0.1,50,0C37-0.1,23.3,2.4,12.1,9.3C1.7,17-1,27.6,0.3,38.2
		C5.4,67.2,18.7,92.9,35,110.4c2.4,3,5.6,5.8,8.1,7.5C45,119,47.5,120.4,50,120.4z"/>
</g>
<g>
	<path fill="#57a65e" d="M50,120.4c2.5,0,4.2-0.9,7-2.5c2.5-1.7,5.7-4.5,8.1-7.5c16.2-17.5,29.6-43.2,34.6-72.2
		c1.2-10.6-1.4-21.2-11.8-28.9C76.7,2.4,62.9-0.1,50,0C37-0.1,23.3,2.4,12.1,9.3C1.7,17-1,27.6,0.3,38.2
		C5.4,67.2,18.7,92.9,35,110.4c2.4,3,5.6,5.8,8.1,7.5C45,119,47.5,120.4,50,120.4z"/>
</g>
<g>
	<path fill="#4f86a9" d="M50,120.4c2.5,0,4.2-0.9,7-2.5c2.5-1.7,5.7-4.5,8.1-7.5c16.2-17.5,29.6-43.2,34.6-72.2
		c1.2-10.6-1.4-21.2-11.8-28.9C76.7,2.4,62.9-0.1,50,0C37-0.1,23.3,2.4,12.1,9.3C1.7,17-1,27.6,0.3,38.2
		C5.4,67.2,18.7,92.9,35,110.4c2.4,3,5.6,5.8,8.1,7.5C45,119,47.5,120.4,50,120.4z"/>
</g>
<g>
	<path fill="#9c5386" d="M50,120.4c2.5,0,4.2-0.9,7-2.5c2.5-1.7,5.7-4.5,8.1-7.5c16.2-17.5,29.6-43.2,34.6-72.2
		c1.2-10.6-1.4-21.2-11.8-28.9C76.7,2.4,62.9-0.1,50,0C37-0.1,23.3,2.4,12.1,9.3C1.7,17-1,27.6,0.3,38.2
		C5.4,67.2,18.7,92.9,35,110.4c2.4,3,5.6,5.8,8.1,7.5C45,119,47.5,120.4,50,120.4z"/>
</g>
</svg>
